<svg xmlns="http://www.w3.org/2000/svg" xmlns:xlink="http://www.w3.org/1999/xlink" width="1366" zoomAndPan="magnify" viewBox="0 0 1024.5 576" height="768" preserveAspectRatio="xMidYMid meet" version="1.0"><defs><clipPath id="3791d3248f"><path d="M 287 18 L 732 18 L 732 518.289062 L 287 518.289062 Z M 287 18 " clip-rule="nonzero"/></clipPath><clipPath id="e9582979b7"><path d="M 288 41 L 739 41 L 739 518.289062 L 288 518.289062 Z M 288 41 " clip-rule="nonzero"/></clipPath><clipPath id="ce67dd278d"><path d="M 279 10.785156 L 731 10.785156 L 731 475 L 279 475 Z M 279 10.785156 " clip-rule="nonzero"/></clipPath></defs><g clip-path="url(#3791d3248f)"><path fill="#ffffff" d="M 729.535156 333.542969 C 729.585938 333.574219 729.640625 333.605469 729.699219 333.640625 C 728.589844 337.761719 727.394531 341.792969 726.109375 345.75 L 725.828125 346.765625 L 725.726562 346.941406 C 706.035156 406.757812 666.886719 447.695312 630.1875 474.507812 C 630.152344 474.53125 630.132812 474.550781 630.097656 474.574219 C 630.042969 474.617188 629.988281 474.648438 629.933594 474.695312 C 586.488281 506.359375 546.574219 518.269531 546.574219 518.269531 C 544.457031 517.515625 542.613281 516.824219 540.917969 516.144531 C 493.894531 498.40625 459.859375 481.292969 435.230469 465.882812 C 410.589844 450.46875 395.359375 436.761719 385.953125 425.835938 C 365.589844 408.578125 354.394531 377.589844 348.296875 350.933594 C 342.199219 324.273438 341.191406 301.933594 341.191406 301.933594 C 338.085938 262.464844 343.503906 229.710938 344.875 222.339844 C 337.429688 212.847656 329.503906 203.808594 321.5625 194.75 C 321.550781 194.738281 321.550781 194.738281 321.542969 194.726562 C 321.542969 194.714844 321.53125 194.714844 321.519531 194.707031 C 307.199219 181.894531 298.558594 169.941406 293.535156 159.378906 C 291.640625 155.863281 290.136719 152.191406 289.390625 148.410156 C 283.503906 127.460938 291.640625 114.179688 291.640625 114.179688 L 297.035156 117.121094 C 297.433594 117.644531 297.984375 118.082031 298.734375 118.355469 C 304.429688 120.410156 309.167969 124.503906 314.816406 126.753906 C 314.96875 126.816406 315.109375 126.839844 315.253906 126.882812 C 315.335938 126.925781 315.421875 126.976562 315.5 127.023438 C 316.015625 127.316406 316.542969 127.601562 317.058594 127.886719 C 317.011719 127.789062 316.96875 127.699219 316.925781 127.613281 C 318.042969 128.304688 319.195312 128.90625 320.414062 129.390625 C 320.488281 129.445312 320.578125 129.476562 320.652344 129.53125 C 320.675781 129.609375 320.695312 129.683594 320.71875 129.773438 C 322.96875 130.921875 325.183594 132.117188 327.199219 133.617188 C 327.265625 131.582031 327.179688 129.738281 327.003906 128.105469 L 322.15625 116.605469 C 322.957031 115.59375 323.269531 114.203125 322.511719 112.742188 C 319.570312 107.082031 315.378906 102.253906 312.027344 96.855469 L 310.542969 94.105469 C 310.542969 94.105469 316.664062 80.289062 340.863281 72.761719 C 341.652344 64.664062 350.292969 60.535156 350.292969 60.535156 C 359.570312 55.988281 364.824219 68.359375 367.402344 77.902344 C 367.402344 77.902344 392.476562 100.035156 411.351562 124.019531 C 422.632812 120 461.757812 105.753906 481.078125 95.117188 C 485.289062 79.6875 489.722656 68.511719 493.613281 60.566406 L 493.625 60.546875 C 493.636719 60.523438 493.644531 60.5 493.65625 60.46875 C 494.589844 58.496094 509.492188 26.851562 513.832031 18.808594 C 514.46875 18.777344 515.117188 18.753906 515.75 18.765625 C 518.140625 26.675781 524.535156 58.703125 524.195312 75.960938 L 546.390625 62.277344 L 560.785156 68.589844 C 567.804688 59.710938 587.5 35.167969 591.863281 33.371094 C 595.207031 32.003906 595.492188 52.832031 595.25 68.6875 C 595.25 68.707031 595.242188 68.742188 595.25 68.761719 C 595.285156 71.820312 595.1875 75.84375 594.964844 80.53125 C 594.964844 80.664062 594.964844 81.792969 594.945312 83.621094 C 646.199219 111.386719 713.800781 112.988281 713.800781 112.988281 C 728.417969 155.675781 731.34375 327.070312 731.34375 327.070312 Z M 729.535156 333.542969 " fill-opacity="1" fill-rule="nonzero"/></g><g clip-path="url(#e9582979b7)"><path fill="#000000" d="M 408.640625 390.78125 C 409.429688 392.195312 410.261719 393.597656 411.117188 394.976562 C 410.121094 393.664062 409.308594 392.261719 408.640625 390.78125 Z M 731.292969 327.242188 C 730.480469 331.070312 729.507812 335.007812 728.429688 338.132812 C 727.6875 340.699219 726.921875 343.246094 726.109375 345.75 L 725.828125 346.765625 L 725.726562 346.941406 C 706.035156 406.757812 666.886719 447.695312 630.1875 474.507812 C 630.152344 474.527344 630.132812 474.550781 630.097656 474.570312 C 630.042969 474.617188 629.988281 474.648438 629.933594 474.691406 C 586.488281 506.359375 546.574219 518.269531 546.574219 518.269531 C 544.457031 517.511719 542.613281 516.824219 540.917969 516.144531 C 493.894531 498.40625 459.859375 481.289062 435.230469 465.882812 C 410.589844 450.46875 395.359375 436.757812 385.953125 425.835938 C 365.589844 408.578125 354.394531 377.589844 348.296875 350.933594 C 342.199219 324.273438 341.191406 301.929688 341.191406 301.929688 C 338.976562 273.777344 341.097656 249.050781 342.992188 234.507812 L 308.273438 181.015625 L 317.160156 189.707031 C 313.035156 184.984375 308.941406 180.234375 304.925781 175.386719 C 300.96875 170.605469 296.691406 165.207031 293.535156 159.375 C 291.636719 155.859375 290.136719 152.1875 289.390625 148.410156 C 289.378906 148.351562 289.367188 148.308594 289.355469 148.253906 C 289.066406 146.765625 288.886719 145.316406 288.800781 143.882812 L 288.734375 143.761719 L 288.777344 143.390625 C 288.636719 140.261719 288.996094 137.210938 289.894531 134.074219 L 290.179688 131.710938 L 288.734375 127.335938 L 288.023438 124.820312 L 293.199219 126.03125 C 293.679688 125.328125 294.335938 124.726562 295.101562 124.246094 C 298.652344 119.558594 303.136719 121.257812 303.136719 121.257812 C 303.136719 121.355469 303.148438 121.453125 303.160156 121.554688 C 304.5 121.726562 305.890625 122.15625 307.285156 122.714844 L 307.292969 122.722656 C 307.589844 122.835938 307.875 122.953125 308.171875 123.085938 C 308.816406 123.371094 309.464844 123.691406 310.101562 124.007812 C 310.1875 124.261719 310.386719 124.480469 310.703125 124.632812 C 311.371094 124.949219 312.054688 125.257812 312.734375 125.5625 C 313.148438 125.75 313.566406 125.945312 313.980469 126.132812 L 313.972656 126.144531 C 314.5 126.449219 315.011719 126.746094 315.496094 127.019531 C 316.011719 127.316406 316.535156 127.601562 317.050781 127.886719 C 317.007812 127.785156 316.964844 127.699219 316.921875 127.613281 C 318.039062 128.300781 319.191406 128.902344 320.40625 129.386719 C 320.484375 129.441406 320.574219 129.472656 320.648438 129.527344 C 320.671875 129.605469 320.691406 129.683594 320.714844 129.769531 C 322.851562 130.863281 324.957031 132.007812 326.894531 133.40625 C 326.976562 132.414062 327.070312 131.144531 327.132812 129.75 C 327.097656 129.183594 327.054688 128.628906 326.996094 128.101562 C 326.777344 126.066406 326.394531 124.34375 325.957031 122.921875 C 325.769531 123.117188 325.582031 123.292969 325.375 123.457031 C 324.890625 122.078125 324.277344 120.761719 323.589844 119.46875 C 323.6875 119.285156 323.773438 119.097656 323.851562 118.945312 C 323.882812 118.867188 323.949219 118.800781 323.992188 118.734375 C 323.664062 118.222656 323.355469 117.714844 323.0625 117.214844 L 323.050781 117.203125 C 322.007812 115.492188 321.132812 113.894531 320.398438 112.4375 C 320.386719 112.699219 320.386719 112.960938 320.386719 113.226562 C 320.375 113.203125 320.386719 113.171875 320.375 113.136719 C 320.289062 112.875 320.167969 112.65625 320.003906 112.46875 C 319.847656 112.140625 319.683594 111.800781 319.507812 111.472656 C 319.265625 110.980469 319.015625 110.476562 318.753906 109.992188 C 318.6875 109.839844 318.621094 109.707031 318.53125 109.585938 C 318.5 109.53125 318.476562 109.488281 318.457031 109.433594 C 318.523438 109.171875 318.578125 108.917969 318.652344 108.65625 C 317.457031 105.808594 317.019531 104.085938 317.019531 104.085938 C 316.050781 98.210938 317.617188 93.484375 320.371094 89.71875 L 320.332031 88.976562 C 320.332031 88.976562 320.332031 88.976562 320.867188 86.789062 C 321.40625 84.601562 320.867188 82.644531 320.867188 82.644531 L 322.464844 81.492188 C 322.464844 81.492188 328.132812 78.019531 333.421875 75.488281 C 336.140625 74.183594 338.6875 74.3125 340.824219 74.746094 C 340.78125 74.058594 340.792969 73.394531 340.859375 72.761719 C 341.648438 64.664062 350.289062 60.53125 350.289062 60.53125 C 359.566406 55.984375 364.816406 68.355469 367.394531 77.898438 C 368.054688 80.332031 368.546875 82.578125 368.875 84.320312 C 369.335938 84.636719 369.808594 84.957031 370.277344 85.285156 C 371.738281 85.757812 374.257812 87.683594 377.417969 90.511719 C 377.472656 90.566406 377.539062 90.621094 377.59375 90.664062 C 377.59375 90.664062 377.59375 90.664062 377.601562 90.675781 C 387.097656 99.199219 402.035156 115.558594 410.039062 124.488281 C 410.421875 124.359375 410.851562 124.195312 411.34375 124.019531 C 422.628906 119.996094 461.753906 105.753906 481.074219 95.113281 C 485.285156 79.683594 489.714844 68.507812 493.609375 60.566406 L 493.617188 60.542969 C 493.628906 60.523438 493.640625 60.5 493.652344 60.464844 C 500.164062 47.21875 505.175781 43 505.175781 43 C 505.175781 43 505.515625 42.617188 506.0625 42.332031 C 506.0625 42.332031 519.574219 34.167969 523.949219 76.101562 L 524.1875 75.960938 L 546.382812 62.273438 L 560.78125 68.585938 L 560.878906 68.628906 C 574.683594 56.335938 586.59375 51.492188 586.59375 51.492188 C 586.59375 51.492188 593.722656 49.027344 595.09375 65.191406 C 595.167969 66.144531 595.222656 67.316406 595.246094 68.683594 C 595.246094 68.707031 595.234375 68.738281 595.246094 68.761719 C 595.28125 71.816406 595.179688 75.839844 594.960938 80.527344 C 594.960938 80.660156 594.960938 81.789062 594.9375 83.621094 C 646.191406 111.386719 713.792969 112.984375 713.792969 112.984375 C 713.921875 113.359375 714.046875 113.742188 714.171875 114.136719 C 714.171875 114.136719 722.835938 138.722656 729.273438 177.460938 C 737.015625 216.144531 742.644531 267.125 733.589844 314.503906 C 733.222656 316.914062 732.429688 321.847656 731.335938 327.019531 C 731.339844 327.046875 731.339844 327.070312 731.339844 327.070312 Z M 504.070312 120.085938 C 510.882812 122.144531 516.714844 124.9375 520.742188 127.140625 C 521.726562 115.523438 522.964844 83.804688 511.246094 53.628906 C 512.054688 66.171875 511.132812 89.195312 504.070312 120.085938 Z M 482.066406 116.785156 C 482.183594 116.785156 482.304688 116.785156 482.414062 116.796875 C 484.621094 116.839844 486.734375 117.027344 488.699219 117.3125 C 490.101562 118.109375 492.207031 117.53125 491.964844 115.546875 C 491.8125 114.308594 491.757812 113.082031 491.789062 111.867188 C 491.789062 111.601562 491.800781 111.328125 491.824219 111.066406 C 492.007812 107.320312 492.941406 103.679688 494.082031 100.074219 C 494.34375 99.222656 494.628906 98.367188 494.902344 97.523438 C 496.097656 93.972656 497.359375 90.445312 498.195312 86.828125 C 498.355469 86.128906 498.203125 85.523438 497.875 85.066406 C 497.898438 84.878906 497.90625 84.691406 497.929688 84.507812 C 499.488281 69.308594 505.933594 60.214844 506.8125 59.03125 C 506.921875 53.519531 506.636719 48.65625 505.746094 44.972656 C 494.671875 63.777344 488.519531 84.464844 485.253906 99.058594 C 484.441406 102.683594 483.804688 105.929688 483.324219 108.679688 C 483.191406 109.382812 483.082031 110.0625 482.960938 110.695312 C 482.515625 113.410156 482.230469 115.492188 482.066406 116.785156 Z M 412.355469 396.894531 C 412.628906 397.292969 412.871094 397.707031 413.148438 398.101562 C 408.320312 388.371094 403.464844 375.367188 404.496094 363.871094 C 403.125 363.0625 401.777344 362.21875 400.449219 361.328125 C 400.296875 361.242188 400.152344 361.140625 400 361.042969 C 398.648438 360.148438 397.335938 359.203125 396.0625 358.238281 C 394.023438 356.660156 392.105469 355.007812 390.394531 353.253906 C 390.46875 353.746094 390.535156 354.238281 390.625 354.734375 C 391.929688 362.960938 394.164062 370.367188 396.832031 376.910156 C 397.695312 383.859375 399.363281 390.726562 403.9375 396.0625 C 404.683594 396.917969 405.601562 397.015625 406.382812 396.699219 C 406.953125 397.609375 407.589844 398.496094 408.324219 399.351562 C 410.121094 401.421875 412.949219 399.097656 412.355469 396.894531 Z M 564.667969 459.398438 C 564.632812 459.296875 564.601562 459.191406 564.570312 459.078125 C 564.425781 458.992188 564.28125 458.902344 564.152344 458.816406 C 564.328125 459.011719 564.492188 459.199219 564.667969 459.398438 Z M 695.792969 347.402344 C 695.574219 346.953125 695.363281 346.503906 695.132812 346.066406 C 691.8125 339.394531 687.898438 333.597656 685.144531 329.871094 C 685 329.742188 684.871094 329.621094 684.726562 329.488281 L 662.371094 329.488281 C 662.414062 329.542969 662.457031 329.597656 662.5 329.652344 C 661.867188 329.5 661.1875 329.410156 660.453125 329.410156 C 660 329.410156 659.585938 329.445312 659.167969 329.511719 C 659.167969 329.5 659.160156 329.5 659.160156 329.488281 L 493.578125 329.488281 C 511.441406 344.644531 536.539062 346.011719 536.539062 346.011719 C 507.363281 354.800781 487.371094 351.28125 475.308594 346.351562 C 489.34375 357.855469 503.050781 362.929688 508.050781 364.519531 C 509.324219 364.925781 510.039062 365.097656 510.039062 365.097656 C 508.667969 365.285156 507.316406 365.449219 505.992188 365.558594 C 471.648438 368.835938 451.832031 352.113281 444.308594 343.882812 C 445.550781 347.476562 447.25 352.191406 449.277344 357.011719 C 449.355469 357.144531 449.441406 357.261719 449.53125 357.382812 C 449.53125 357.382812 449.496094 357.382812 449.429688 357.363281 C 452.820312 365.382812 457.105469 373.632812 461.539062 377.476562 C 462.042969 377.917969 462.558594 378.300781 463.070312 378.617188 C 463.070312 378.617188 461.570312 378.378906 459.046875 377.796875 C 450.671875 375.867188 430.996094 370.214844 417.433594 357.347656 C 415.898438 355.90625 414.449219 354.359375 413.113281 352.726562 C 412.761719 352.308594 412.421875 351.894531 412.105469 351.464844 C 411.164062 351.050781 410.242188 350.613281 409.320312 350.140625 C 409.339844 350.214844 409.375 350.304688 409.40625 350.382812 C 409.902344 351.695312 410.480469 353.152344 411.183594 354.675781 C 411.535156 355.453125 411.917969 356.242188 412.324219 357.054688 C 412.761719 357.910156 413.234375 358.773438 413.738281 359.640625 C 416.90625 365.152344 421.480469 370.804688 427.851562 374.300781 C 427.71875 374.378906 427.597656 374.464844 427.488281 374.5625 C 423.113281 372.953125 417.039062 370.511719 410.746094 367.300781 C 420.03125 379.746094 438.046875 405.453125 443.496094 424.460938 C 443.507812 424.484375 443.507812 424.507812 443.507812 424.519531 C 443.773438 425.449219 444.015625 426.371094 444.210938 427.269531 C 443.992188 429.535156 443.695312 431.773438 443.324219 433.953125 C 442.972656 436.046875 444.355469 437.558594 445.941406 438.050781 C 445.734375 438.804688 445.515625 439.5625 445.296875 440.320312 C 445.886719 439.816406 446.589844 439.167969 447.335938 438.335938 C 447.378906 438.289062 447.414062 438.246094 447.457031 438.203125 C 447.542969 438.191406 447.621094 438.179688 447.699219 438.160156 C 448.773438 437.964844 449.671875 437.21875 449.914062 435.761719 C 449.96875 435.453125 450.011719 435.144531 450.066406 434.828125 C 453.597656 429.503906 457.140625 420.574219 456.875 406.382812 C 456.84375 404.027344 456.691406 401.527344 456.414062 398.867188 C 454.640625 392.214844 452.839844 385.652344 449.648438 379.308594 C 449.605469 379.207031 449.550781 379.097656 449.496094 379 C 449.476562 378.945312 449.550781 378.902344 449.585938 378.957031 C 449.585938 378.957031 449.59375 378.96875 449.605469 378.988281 C 453.816406 384.996094 457.28125 392.015625 458.96875 399.335938 C 463.003906 407.609375 470.386719 421.1875 481.03125 434.410156 C 482.808594 438.355469 484.980469 442.167969 487.675781 445.875 C 490.265625 449.433594 494.324219 455.898438 499.082031 460.566406 L 499.09375 460.578125 C 502.46875 463.886719 506.210938 466.296875 510.039062 466.101562 C 510.421875 466.089844 510.816406 466.042969 511.199219 465.96875 L 511.210938 465.96875 C 511.332031 465.945312 511.441406 465.925781 511.5625 465.890625 C 518.644531 464.238281 516.878906 454.503906 510.902344 453.410156 C 510.410156 452.984375 509.925781 452.535156 509.457031 452.085938 C 507.910156 450.617188 506.507812 448.996094 505.113281 447.386719 C 504.71875 446.9375 504.347656 446.488281 503.972656 446.027344 C 503.84375 445.882812 503.722656 445.730469 503.601562 445.589844 C 503.40625 445.171875 503.207031 444.753906 503.007812 444.339844 C 503.195312 444.304688 503.390625 444.261719 503.578125 444.207031 C 506.1875 443.539062 508.382812 441.554688 508.613281 439.101562 C 509.808594 440.636719 511.003906 442.160156 512.1875 443.636719 C 511.914062 443.144531 511.648438 442.664062 511.386719 442.160156 C 510.960938 441.347656 510.53125 440.523438 510.105469 439.714844 C 510.554688 440.230469 511.027344 440.734375 511.519531 441.226562 C 516.640625 446.277344 524.140625 440.132812 522.210938 434.597656 C 522.417969 434.75 522.640625 434.882812 522.855469 435.003906 C 523.449219 436.460938 524.140625 437.886719 524.996094 439.246094 C 530.25 447.59375 539.449219 454.824219 548.285156 459.035156 C 550.195312 459.941406 552.132812 459.976562 553.757812 459.375 C 556.214844 460.875 558.792969 462.34375 561.5 463.722656 C 559.277344 462.132812 557.070312 460.503906 554.910156 458.792969 C 555.535156 458.410156 556.085938 457.914062 556.535156 457.347656 C 557.859375 458.277344 559.277344 459.210938 560.679688 460.207031 C 559.515625 458.878906 558.363281 457.53125 557.246094 456.175781 C 557.839844 454.925781 558.058594 453.425781 557.730469 451.78125 L 557.597656 451.113281 C 557.609375 450.816406 557.609375 450.519531 557.585938 450.203125 C 557.484375 448.722656 557.410156 447.210938 557.355469 445.675781 C 557.34375 445.511719 557.332031 445.347656 557.332031 445.183594 C 557.464844 445.460938 557.585938 445.742188 557.730469 446.015625 C 557.78125 446.117188 557.839844 446.226562 557.890625 446.324219 C 559.472656 449.382812 561.523438 452.210938 563.34375 455.125 C 562.992188 453.949219 562.628906 452.710938 562.269531 451.421875 C 559.679688 442.203125 556.996094 430.359375 556.996094 420.75 C 556.996094 420.75 576.039062 437.765625 597.511719 448.242188 C 601.230469 445.722656 604.96875 443.058594 608.738281 440.332031 C 608.816406 440.308594 608.882812 440.296875 608.957031 440.289062 C 610.964844 439.726562 612.488281 438.632812 613.761719 437.152344 C 615.789062 436.199219 617.390625 434.578125 618.367188 432.636719 C 621.273438 430.085938 624.191406 427.433594 627.097656 424.683594 C 626.242188 424.070312 625.398438 423.433594 624.550781 422.796875 C 606.953125 409.441406 590.4375 390.695312 589.902344 390.078125 C 604.046875 398.792969 622.304688 405.488281 635.910156 409.757812 C 637.261719 410.175781 638.554688 410.582031 639.804688 410.953125 C 639.179688 410.570312 638.542969 410.175781 637.917969 409.792969 C 638.148438 409.855469 638.367188 409.933594 638.597656 410 C 639.210938 410.175781 639.804688 410.273438 640.363281 410.316406 C 640.921875 410.363281 641.449219 410.339844 641.941406 410.261719 C 643.710938 410.023438 645.167969 409.132812 646.242188 407.894531 C 647.382812 406.625 648.105469 404.96875 648.335938 403.261719 C 649.828125 401.671875 651.308594 400.082031 652.765625 398.496094 C 652.644531 398.40625 652.535156 398.320312 652.414062 398.222656 C 653.917969 396.914062 655.265625 395.480469 656.59375 394.011719 C 656.648438 394.046875 656.703125 394.066406 656.757812 394.097656 C 658.050781 392.664062 659.3125 391.25 660.574219 389.828125 C 661.109375 389.496094 661.601562 389.09375 662.042969 388.601562 C 667.449219 382.441406 674.027344 377.316406 678.273438 370.191406 C 678.675781 369.5 678.960938 368.8125 679.160156 368.132812 C 679.183594 368.109375 679.203125 368.074219 679.226562 368.054688 C 680.234375 366.828125 681.222656 365.632812 682.175781 364.460938 C 682.199219 364.4375 682.207031 364.417969 682.230469 364.394531 C 682.765625 363.738281 683.292969 363.101562 683.808594 362.46875 C 683.796875 362.457031 683.789062 362.433594 683.765625 362.421875 C 683.742188 362.390625 683.710938 362.359375 683.679688 362.324219 C 683.90625 362.09375 684.148438 361.855469 684.378906 361.625 C 684.457031 361.546875 684.523438 361.480469 684.597656 361.402344 C 686.5625 359.453125 688.339844 357.460938 689.960938 355.222656 C 690.269531 354.808594 690.5 354.371094 690.675781 353.917969 C 692.703125 351.371094 694.421875 349.167969 695.792969 347.402344 Z M 706.144531 332.042969 C 704.335938 331.363281 702.4375 330.386719 700.824219 329.488281 L 688.773438 329.488281 C 689.828125 330.265625 690.921875 330.96875 692.152344 331.515625 C 694.3125 332.46875 696.539062 333.300781 698.753906 334.089844 C 700.320312 334.648438 701.898438 335.207031 703.5 335.679688 C 703.863281 335.710938 704.214844 335.734375 704.574219 335.753906 C 705.148438 334.527344 705.664062 333.289062 706.144531 332.042969 Z M 707.875 252.238281 C 695.957031 202.207031 654.902344 178.363281 623.660156 167.253906 C 622.246094 166.75 620.84375 166.269531 619.460938 165.832031 C 619.121094 165.710938 618.792969 165.597656 618.453125 165.492188 C 618.539062 168.84375 617.914062 172.304688 616.082031 174.671875 C 616.03125 174.738281 615.933594 174.761719 615.832031 174.761719 C 615.820312 174.878906 615.820312 175 615.789062 175.121094 C 615.699219 175.507812 615.21875 175.59375 614.953125 175.339844 C 614.78125 175.175781 614.648438 174.992188 614.503906 174.804688 C 614.558594 174.605469 614.625 174.410156 614.667969 174.210938 C 615.414062 170.96875 613.363281 168.636719 610.898438 167.859375 C 610.777344 167.671875 610.667969 167.484375 610.546875 167.300781 C 609.746094 166.105469 608.867188 165.109375 607.914062 164.199219 C 607.542969 163.835938 607.144531 163.484375 606.75 163.136719 C 606.214844 162.675781 605.644531 162.226562 605.0625 161.753906 C 605.152344 162.226562 605.238281 162.6875 605.3125 163.15625 C 605.632812 165.117188 605.773438 166.980469 605.820312 168.820312 C 605.820312 168.832031 605.820312 168.832031 605.820312 168.832031 C 605.171875 169.445312 604.679688 170.277344 604.425781 171.382812 C 603.746094 174.320312 602.375 176.886719 600.597656 179.207031 C 600.585938 179.1875 600.566406 179.175781 600.554688 179.152344 C 600.566406 179.183594 600.566406 179.207031 600.578125 179.238281 C 597.40625 183.371094 592.945312 186.734375 588.679688 190 C 588.679688 189.890625 588.691406 189.78125 588.699219 189.671875 C 588.613281 189.847656 588.5 190.03125 588.402344 190.207031 C 586.472656 191.6875 584.578125 193.167969 582.886719 194.691406 C 582.207031 194.941406 581.539062 195.226562 580.882812 195.542969 C 580.980469 194.886719 581.066406 194.21875 581.164062 193.515625 C 581.175781 193.460938 581.1875 193.429688 581.1875 193.398438 C 582.539062 183.875 584.214844 170.527344 585.773438 157.589844 L 587.679688 135.90625 L 590.75 101.160156 L 590.75 101.09375 C 590.542969 82.511719 588.9375 66.425781 584.53125 60.738281 C 580.761719 77.449219 572.460938 113.453125 564.851562 140.75 L 564.851562 140.757812 C 564.015625 143.78125 563.183594 146.699219 562.359375 149.46875 C 562.359375 149.46875 562.359375 149.480469 562.347656 149.503906 C 561.085938 153.753906 559.871094 157.65625 558.722656 161.085938 C 558.722656 161.09375 558.707031 161.105469 558.707031 161.117188 C 558.578125 162.609375 558.304688 164.0625 557.855469 165.476562 C 557.679688 165.972656 557.503906 166.488281 557.316406 167 C 557.109375 167.539062 556.878906 168.050781 556.617188 168.566406 L 556.617188 168.578125 C 556.539062 168.730469 556.460938 168.886719 556.375 169.039062 C 556.363281 169.050781 556.351562 169.070312 556.34375 169.082031 C 556.320312 169.117188 556.296875 169.148438 556.277344 169.179688 C 556.144531 169.773438 555.992188 170.355469 555.828125 170.945312 C 555.34375 172.597656 554.707031 174.199219 553.832031 175.632812 C 553.085938 176.859375 552.164062 177.96875 551.023438 178.867188 C 550.585938 179.207031 550.101562 179.511719 549.597656 179.789062 C 549.542969 179.6875 549.511719 179.601562 549.445312 179.503906 C 548.960938 178.734375 548.535156 177.957031 548.128906 177.167969 C 548.710938 176.6875 549.246094 176.136719 549.707031 175.535156 C 549.082031 175.832031 548.414062 176.09375 547.734375 176.324219 C 547.492188 175.820312 547.273438 175.316406 547.054688 174.804688 C 546.933594 174.308594 546.8125 173.828125 546.703125 173.324219 C 547.546875 172.796875 548.304688 172.109375 549.003906 171.273438 C 548.074219 171.21875 547.152344 171.035156 546.230469 170.78125 C 546.125 170.046875 546.035156 169.289062 545.957031 168.511719 C 546.351562 168.105469 546.683594 167.636719 546.921875 167.109375 C 547.425781 167.164062 547.929688 167.175781 548.445312 167.132812 C 548.007812 166.925781 547.582031 166.703125 547.164062 166.464844 C 547.40625 165.652344 547.457031 164.734375 547.230469 163.714844 C 546.769531 161.644531 546.273438 159.5625 545.792969 157.488281 C 546.023438 153.140625 546.515625 148.800781 547.054688 144.507812 C 548.214844 135.3125 550.023438 126.261719 552.339844 117.34375 C 553.390625 115.480469 554.5 113.683594 555.507812 111.832031 C 555.738281 112.554688 555.894531 112.984375 555.894531 112.984375 C 556.066406 111.886719 556.316406 110.78125 556.617188 109.664062 C 557.472656 107.886719 558.183594 106.023438 558.632812 104.007812 C 564.226562 91.113281 575.605469 79.210938 575.628906 79.191406 C 576.1875 76.582031 576.714844 74.09375 577.199219 71.761719 C 578.523438 65.328125 579.476562 60.125 579.90625 56.828125 C 579.9375 56.585938 579.96875 56.34375 579.992188 56.125 C 579.621094 56.410156 579.246094 56.695312 578.875 56.980469 C 570.277344 63.640625 562.832031 71.324219 556.394531 79.410156 C 551.285156 87.320312 543.9375 98.75 537.449219 109.125 C 524.101562 135.195312 519.429688 158.050781 519.429688 158.050781 C 519.804688 152.230469 520.472656 146.710938 521.382812 141.449219 C 516.546875 129.703125 502.960938 124.070312 492.3125 121.429688 C 479.550781 119.46875 465.753906 121.683594 465.570312 121.714844 C 458.101562 123.84375 450.347656 127.347656 446.785156 133.125 C 440.777344 142.863281 450.183594 137.921875 457.71875 139.074219 C 464.449219 138.753906 469.890625 139.75 474.265625 141.515625 C 474.285156 141.515625 474.296875 141.527344 474.320312 141.539062 C 476.953125 142.601562 479.199219 143.925781 481.105469 145.417969 C 481.117188 145.417969 481.117188 145.417969 481.128906 145.429688 C 481.511719 145.726562 481.863281 146.019531 482.214844 146.316406 C 488.628906 151.828125 490.964844 158.960938 491.710938 162.019531 C 491.941406 162.972656 492.015625 163.53125 492.015625 163.53125 C 489.332031 156.089844 484.855469 152.320312 480.242188 150.546875 C 481.03125 151.167969 481.753906 151.839844 482.390625 152.484375 C 485.285156 155.421875 487.445312 158.644531 487.949219 162.75 C 487.949219 162.785156 487.902344 162.785156 487.894531 162.773438 C 485.898438 159.429688 483.59375 155.925781 480.304688 153.722656 C 480.109375 153.59375 479.902344 153.480469 479.703125 153.359375 C 482.179688 156.339844 483.859375 159.628906 484.902344 162.105469 C 485.042969 162.457031 485.175781 162.785156 485.292969 163.101562 C 485.175781 162.847656 485.042969 162.609375 484.902344 162.367188 C 482.96875 159.125 479.527344 157.019531 476.214844 155.660156 C 480.230469 159.585938 483.023438 166.246094 481.050781 170.105469 C 481.019531 170.191406 480.910156 170.160156 480.886719 170.082031 C 480.207031 168.285156 480.285156 166.324219 479.550781 164.550781 C 478.683594 162.433594 477.214844 160.617188 475.46875 159.160156 C 475 158.765625 474.492188 158.390625 473.988281 158.019531 C 473.988281 158.050781 474 158.085938 474 158.117188 C 474.40625 161.65625 474.308594 165.195312 473.066406 168.515625 C 472.9375 168.886719 472.769531 169.261719 472.609375 169.632812 C 472.550781 169.753906 472.476562 169.832031 472.386719 169.898438 C 472.71875 171.101562 472.914062 171.835938 472.914062 171.835938 L 455.085938 160.351562 L 450.214844 157.21875 L 445.140625 153.941406 C 443.625 152.96875 442.089844 152.726562 440.664062 152.890625 C 440.039062 151.390625 439.140625 150.011719 438 148.835938 C 437.902344 148.695312 437.8125 148.550781 437.703125 148.410156 C 437.089844 143.511719 441.804688 141.210938 442.089844 141.089844 C 438.832031 144.476562 439.457031 147.6875 440.050781 149.1875 C 440.246094 149.1875 440.445312 149.1875 440.644531 149.199219 C 441.34375 145.460938 443.035156 143.390625 444.820312 142.273438 C 443.789062 142.011719 442.847656 141.628906 442.101562 141.078125 C 441.839844 140.882812 441.609375 140.671875 441.375 140.433594 C 439.710938 138.867188 437.023438 137.792969 433.984375 137.046875 L 428.097656 136.019531 C 425.058594 135.65625 422.078125 135.511719 419.710938 135.46875 C 419.324219 135.457031 418.964844 135.457031 418.613281 135.457031 C 418.941406 135.996094 419.28125 136.542969 419.644531 137.058594 C 420.683594 138.582031 421.695312 140.203125 422.101562 142.03125 C 422.167969 142.339844 421.859375 142.546875 421.585938 142.417969 C 419.601562 141.464844 418.207031 139.675781 417.035156 137.871094 C 416.519531 137.078125 416.027344 136.304688 415.621094 135.480469 C 415.039062 135.492188 414.710938 135.503906 414.710938 135.503906 C 412.460938 131.765625 404.5 123.316406 395.859375 114.640625 C 387.230469 105.949219 377.921875 97.042969 373.007812 92.363281 L 372.996094 92.351562 C 372.316406 91.707031 371.714844 91.136719 371.222656 90.664062 C 369.871094 89.394531 365.453125 87.378906 360.429688 85.339844 C 360.429688 85.328125 360.417969 85.328125 360.417969 85.328125 C 355.933594 83.515625 350.972656 81.679688 347.257812 80.347656 C 334.984375 85.355469 320.867188 99.136719 320.867188 99.136719 L 320.601562 94.113281 C 319.960938 95.765625 320.210938 97.496094 320.867188 99.136719 C 320.835938 103.574219 323.628906 109.007812 324.957031 112.152344 C 326.164062 115.023438 327.730469 118.183594 329.03125 121.453125 L 332.035156 122.355469 C 332.035156 122.355469 336.230469 136.871094 327.457031 148.535156 C 327.457031 148.535156 325.308594 141.867188 320.351562 138.84375 C 316.988281 137.660156 313.71875 135.863281 310.800781 133.980469 C 306.910156 131.46875 303.640625 128.816406 301.636719 127.316406 C 301.425781 127.296875 301.21875 127.273438 300.988281 127.261719 C 300.253906 127.242188 299.507812 127.25 298.773438 127.339844 C 298.773438 127.339844 296.289062 146.179688 300.644531 162.441406 C 301.804688 164.078125 303 165.6875 304.257812 167.246094 C 308.71875 172.789062 313.730469 177.894531 318.597656 183.121094 C 333.960938 199.644531 349.761719 216.300781 361.859375 235.445312 C 365.3125 240.914062 368.414062 246.554688 371.472656 252.242188 L 678.179688 252.242188 C 676.820312 250.773438 675.492188 249.292969 674.199219 247.824219 C 670.238281 243.355469 665.667969 239.214844 662.683594 233.996094 C 662.605469 233.855469 662.78125 233.734375 662.90625 233.832031 C 667.949219 237.921875 672.992188 242.53125 677.671875 247.113281 C 681.808594 247.976562 688.34375 250.113281 694.386719 252.238281 L 700.074219 252.238281 C 696.46875 246.847656 692.535156 241.675781 688.179688 236.855469 C 683.300781 231.453125 678.144531 226.105469 672.597656 221.394531 C 667.871094 217.394531 662.628906 214.261719 657.785156 210.449219 C 657.683594 210.371094 657.804688 210.242188 657.902344 210.261719 C 671.632812 212.210938 684.964844 223.816406 693.914062 233.730469 C 698.925781 239.285156 703.539062 245.269531 707.476562 251.636719 C 707.597656 251.84375 707.730469 252.03125 707.851562 252.238281 Z M 445.121094 150.917969 C 445.132812 150.917969 445.144531 150.929688 445.144531 150.929688 L 466.523438 163.800781 L 466.175781 161.972656 L 464.605469 153.941406 L 463.53125 150.46875 C 461.152344 143.992188 458.191406 142.53125 456.734375 142.226562 L 455.832031 142.160156 C 455.832031 142.160156 452.015625 142.894531 448.179688 142.71875 C 445.636719 144.835938 445.011719 147.386719 445 149.347656 C 445 149.929688 445.054688 150.46875 445.121094 150.917969 Z M 445.121094 150.917969 " fill-opacity="1" fill-rule="nonzero"/></g><path fill="#000000" d="M 413.769531 400.359375 C 414.417969 400.839844 415.066406 401.292969 415.734375 401.675781 C 415.734375 401.675781 410.316406 404.128906 408.640625 404.269531 C 406.960938 404.414062 404.898438 403.722656 402.640625 402.902344 C 400.382812 402.078125 397.574219 398.933594 393.914062 396.054688 C 390.238281 393.171875 386.402344 389.882812 386.402344 389.882812 C 386.402344 389.882812 382.421875 388.929688 380.917969 383.453125 C 379.417969 377.972656 378.320312 375.507812 378.035156 373.996094 C 377.769531 372.496094 378.449219 370.027344 378.035156 369.347656 C 377.628906 368.660156 378.320312 366.875 377.96875 365.984375 L 389.550781 351.390625 C 389.648438 351.390625 390.007812 352.628906 390.625 354.730469 C 393.15625 363.429688 400.007812 386.847656 410.84375 397.804688 C 407.160156 391.898438 400.285156 378.574219 400.449219 361.328125 C 400.460938 359.3125 400.570312 357.230469 400.800781 355.105469 C 403.671875 328.257812 409.878906 361.535156 409.878906 361.535156 C 409.878906 361.535156 409.152344 369.480469 409.285156 372.21875 C 409.429688 374.957031 408.410156 380.984375 409.878906 384.40625 C 411.347656 387.835938 413.507812 390.027344 413.113281 391.8125 C 412.71875 393.585938 414.769531 398.648438 414.910156 399.066406 Z M 571.257812 486.976562 C 568.339844 488.191406 553.351562 487.578125 552.253906 486.976562 L 531.429688 476.324219 C 529.6875 479.261719 525.816406 484.488281 520.09375 485.265625 C 512.042969 486.363281 504.378906 489.289062 498.710938 483.4375 C 493.039062 477.597656 488.652344 469.5625 486.460938 468.097656 C 484.269531 466.640625 478.773438 462.34375 478.773438 462.34375 C 476.089844 482.921875 472.894531 463.394531 470.011719 461.164062 L 447.699219 438.160156 L 447.226562 437.679688 C 447.269531 437.898438 447.304688 438.117188 447.335938 438.335938 C 448.082031 442.742188 448.269531 446.984375 447.71875 450.925781 L 409.878906 369.121094 C 409.878906 369.121094 433.378906 397.167969 443.496094 424.464844 C 443.507812 424.488281 443.507812 424.507812 443.507812 424.519531 C 445.164062 428.96875 446.449219 433.382812 447.214844 437.667969 C 447.214844 437.667969 457.457031 427.367188 450.976562 386.828125 C 450.605469 384.425781 450.15625 381.929688 449.648438 379.308594 C 449.628906 379.210938 449.605469 379.101562 449.59375 378.992188 C 449.585938 378.980469 449.585938 378.96875 449.585938 378.960938 C 449.585938 378.960938 449.59375 378.96875 449.605469 378.992188 L 449.617188 378.992188 C 450.472656 379.878906 468.761719 399.085938 476.570312 424.410156 C 483.421875 436.199219 495.15625 453.785156 509.476562 464.6875 C 510.027344 465.117188 510.585938 465.523438 511.15625 465.914062 C 510.949219 465.628906 509.796875 464.050781 508.28125 461.367188 C 503.414062 452.734375 494.785156 432.605469 501.5625 407.097656 C 502.59375 403.183594 503.996094 399.128906 505.835938 394.976562 C 505.835938 394.976562 525.828125 435.78125 552.308594 458.300781 C 537.078125 433.867188 534.148438 401.179688 533.984375 399.164062 C 535.871094 415.710938 546.488281 432.453125 557.355469 445.675781 C 557.527344 445.898438 557.714844 446.117188 557.890625 446.324219 C 559.347656 448.089844 560.816406 449.785156 562.265625 451.417969 C 573.144531 463.636719 582.957031 471.679688 582.957031 471.679688 L 581.347656 473.167969 C 609.210938 481.714844 574.03125 485.824219 571.257812 486.976562 Z M 525.105469 473.082031 L 511.246094 465.992188 C 515.652344 469.136719 520.300781 471.613281 525.105469 473.082031 Z M 631.207031 425.320312 C 631.207031 425.320312 629.375 416.238281 628.277344 418.066406 C 627.992188 418.546875 626.535156 420.378906 624.550781 422.800781 C 620.347656 427.949219 613.792969 435.773438 610.984375 439.105469 C 598.945312 417.144531 576.804688 390.890625 564.09375 376.582031 C 564.03125 376.691406 563.953125 376.800781 563.886719 376.898438 C 581.101562 401.578125 597.507812 448.242188 597.507812 448.242188 L 616.589844 450.929688 C 615.71875 448.671875 614.667969 446.304688 613.464844 443.859375 L 618.78125 448.242188 C 618.78125 448.242188 622.070312 442.898438 623.890625 441.328125 C 625.722656 439.75 628.277344 438.886719 631.207031 435.226562 C 634.132812 431.574219 631.207031 425.320312 631.207031 425.320312 Z M 631.207031 425.320312 " fill-opacity="1" fill-rule="nonzero"/><path fill="#ffffff" d="M 510.039062 381.03125 C 505.265625 389.25 502.691406 398.203125 501.5625 407.097656 C 499.863281 420.433594 501.386719 433.667969 503.578125 444.210938 C 503.710938 444.824219 503.84375 445.4375 503.972656 446.03125 C 505.421875 452.503906 507.066406 457.832031 508.285156 461.371094 C 508.765625 462.773438 509.171875 463.890625 509.480469 464.691406 C 509.796875 465.511719 509.992188 465.996094 510.027344 466.09375 C 506.144531 464.492188 502.503906 462.640625 499.09375 460.582031 L 499.082031 460.570312 C 476.296875 446.882812 463.675781 424.3125 456.878906 406.386719 C 454.496094 400.089844 452.835938 394.382812 451.691406 389.808594 L 449.496094 391.03125 L 441.136719 377.152344 C 444.09375 374.855469 447.933594 376.394531 451.269531 378.785156 L 459.046875 377.800781 L 461.539062 377.480469 L 484.632812 374.566406 L 494.875 372.878906 C 494.875 372.878906 500.488281 368.5625 505.992188 365.558594 C 506.683594 365.1875 507.375 364.824219 508.054688 364.519531 C 515.609375 360.882812 521.527344 361.21875 510.039062 381.03125 Z M 694.785156 348.546875 C 694.90625 347.757812 695.023438 346.9375 695.132812 346.066406 C 698.082031 322.742188 684.066406 287.898438 673.148438 265.0625 C 671.4375 260.644531 669.496094 256.632812 667.289062 253.300781 C 667.179688 253.09375 667.078125 252.890625 666.972656 252.6875 C 687.808594 263.515625 714.175781 284.199219 714.175781 284.199219 C 710.15625 262.097656 691.074219 240.1875 691.074219 240.1875 L 634.660156 227.3125 L 635.222656 230.328125 C 635.222656 230.328125 634.828125 232.0625 634.703125 234.394531 C 627.085938 232.296875 620.34375 231.832031 611.464844 231.058594 C 599.859375 230.050781 590.871094 225.648438 583.648438 225.089844 C 577.378906 217.699219 556.898438 224.394531 539.457031 225.214844 C 516.066406 226.308594 500.347656 227.3125 500.347656 227.3125 L 482.378906 244.722656 C 481.40625 240.984375 480.671875 237.265625 480.246094 233.617188 L 466.777344 241.457031 L 469.28125 217.179688 L 451.761719 226.664062 C 457.609375 196.355469 428.710938 214.984375 428.710938 214.984375 L 406.203125 242.351562 L 370.746094 250.894531 C 370.746094 250.894531 376.441406 316.890625 421.03125 328.210938 C 421.03125 328.210938 409.324219 302.464844 407.859375 275.96875 C 418.632812 298.710938 438.773438 329.707031 469.28125 332.226562 C 469.28125 332.226562 454.28125 307.484375 448.558594 278.375 C 464.261719 294.964844 491.03125 317.078125 521.550781 316.160156 C 521.550781 316.160156 511.042969 303.375 500.574219 285.734375 C 502.1875 286.632812 503.855469 287.535156 505.570312 288.4375 C 517.046875 296.449219 543.78125 313.960938 572.1875 324.5 C 562.828125 323.558594 556.222656 321.664062 555.308594 321.390625 L 537.996094 316.1875 C 537.996094 316.1875 538.75 322.726562 544.542969 328.855469 C 535.402344 328.472656 500.703125 326.699219 491.210938 321.636719 L 483.535156 317.984375 C 483.535156 317.984375 494.785156 337.777344 524.613281 344.132812 C 554.445312 350.492188 560.65625 346.867188 562.121094 347.402344 L 550.835938 333.832031 C 551.839844 334.425781 552.914062 334.992188 554.078125 335.515625 C 558.1875 337.363281 562.207031 338.171875 565.867188 338.378906 L 569.796875 344.648438 C 569.796875 344.648438 575.640625 344.28125 584.050781 344.640625 C 589.996094 344.894531 596.488281 337.304688 600.039062 332.003906 C 603.40625 332.511719 606.738281 332.847656 610.003906 332.96875 C 632.101562 333.800781 639.933594 333.566406 642.214844 333.207031 C 644.886719 333.773438 652.214844 333.847656 658.769531 333.785156 L 663 340.996094 C 663 340.996094 666.289062 341.726562 670.675781 342.457031 C 673.121094 342.863281 678.984375 355.546875 684.507812 360.207031 L 678.078125 367.5 L 658.976562 389.195312 L 655.367188 393.28125 L 640.355469 410.320312 L 639.800781 410.953125 C 640.488281 410.800781 641.191406 410.570312 641.933594 410.265625 C 643.296875 409.707031 644.734375 408.90625 646.234375 407.898438 C 658.90625 399.453125 675.964844 376.546875 686.402344 361.472656 C 689.773438 363.050781 692.839844 360.578125 694.691406 349.109375 C 695.402344 348.015625 695.789062 347.402344 695.789062 347.402344 Z M 694.785156 348.546875 " fill-opacity="1" fill-rule="nonzero"/><g clip-path="url(#ce67dd278d)"><path fill="#000000" d="M 508.097656 325.800781 L 536.628906 313.328125 C 536.628906 313.328125 545.949219 325.105469 553.351562 329.488281 C 553.351562 329.488281 530.117188 330.023438 508.097656 325.800781 Z M 451.097656 338.503906 L 438.214844 341.539062 C 441.886719 343.988281 443.734375 345.675781 445.234375 346.488281 C 448.238281 353.816406 462.875 379.910156 515.984375 368.476562 C 515.984375 368.476562 482.804688 351.949219 467.089844 341.539062 L 451.3125 343.710938 C 451.433594 340.210938 451.097656 338.503906 451.097656 338.503906 Z M 478.785156 118.5625 L 467.089844 115.371094 L 516.433594 10.816406 L 531.421875 85.960938 L 524.207031 84.230469 L 521.910156 75.613281 L 518.8125 70.074219 C 518.8125 70.074219 518.535156 71.445312 517.164062 65.144531 C 515.796875 58.84375 513.054688 48.160156 513.054688 48.160156 L 511.410156 43.503906 L 509.207031 41.910156 L 508.914062 42.648438 C 508.914062 42.648438 507.734375 45.617188 508.914062 48.390625 C 509.933594 50.785156 507.597656 52.925781 507.382812 56.03125 C 507.386719 56.328125 507.390625 56.636719 507.390625 56.96875 C 507.40625 57.164062 507.421875 57.363281 507.457031 57.570312 C 507.910156 60.1875 507.542969 62.675781 507.339844 64.726562 C 507.324219 65.484375 507.292969 66.183594 507.246094 66.847656 C 507.253906 67.078125 507.261719 67.3125 507.296875 67.519531 C 507.660156 69.804688 507.296875 72.542969 507.296875 75.101562 C 507.296875 77.65625 502.546875 85.964844 502.546875 85.964844 L 500.808594 92.503906 L 501.234375 82.757812 C 500.820312 83.550781 500.402344 84.347656 500.003906 85.109375 L 500.992188 94.183594 C 499.742188 95.257812 498.335938 96.089844 496.890625 96.746094 C 496.230469 97.042969 495.574219 97.308594 494.90625 97.523438 C 491.546875 98.679688 488.269531 98.972656 486.535156 99.042969 L 482.570312 109.03125 C 482.824219 108.917969 483.078125 108.804688 483.328125 108.679688 C 487.746094 106.445312 491.617188 102.761719 494.085938 100.078125 C 495.847656 98.160156 496.890625 96.746094 496.890625 96.746094 L 495.542969 109.523438 C 496.101562 109.117188 496.574219 108.746094 496.890625 108.429688 C 499.894531 105.414062 495.804688 115.824219 496.890625 116.648438 C 497.976562 117.46875 497.976562 117.46875 497.976562 117.46875 L 496.890625 120.480469 L 478.785156 118.5625 C 478.785156 118.5625 480.277344 117.859375 482.414062 116.796875 C 485.078125 115.480469 488.753906 113.609375 491.789062 111.867188 C 492.765625 111.296875 493.6875 110.75 494.476562 110.234375 C 493.566406 110.605469 492.679688 110.878906 491.824219 111.066406 C 488.148438 111.910156 484.96875 111.328125 482.960938 110.695312 C 482.617188 110.585938 482.304688 110.480469 482.03125 110.378906 Z M 487.109375 97.582031 C 492.039062 93.40625 495.832031 87.929688 497.878906 84.589844 L 499.949219 65.238281 Z M 522.648438 167.738281 C 531.441406 168.667969 537.726562 165.699219 541.714844 162.6875 C 533.613281 175.726562 522.648438 188.6875 522.648438 188.6875 C 530.578125 188.238281 537.855469 181.914062 542.824219 176.261719 C 538.503906 189.550781 532.792969 201.5625 532.792969 201.5625 C 542.230469 196.851562 549.109375 186.132812 553.832031 175.636719 C 554.546875 174.070312 555.203125 172.492188 555.828125 170.945312 C 556.355469 169.609375 556.847656 168.285156 557.320312 167.003906 C 557.507812 166.488281 557.683594 165.972656 557.855469 165.480469 C 560.863281 156.824219 562.253906 150.007812 562.351562 149.503906 C 562.363281 149.480469 562.363281 149.46875 562.363281 149.46875 L 549.511719 153.558594 L 549.511719 148.046875 L 553.625 132.804688 C 552.953125 135.019531 551.902344 137.277344 550.585938 139.511719 L 552.714844 130 L 562.496094 124.039062 C 562.496094 124.039062 565.960938 113.628906 570.347656 105.414062 C 574.734375 97.195312 571.992188 97.742188 576.652344 86.511719 C 577.644531 84.125 578.21875 82.101562 578.539062 80.371094 L 578.554688 80.371094 L 582.136719 59.632812 L 583.378906 56.324219 L 584.875 56.105469 C 584.875 56.105469 586.792969 54.1875 587.34375 55.011719 C 587.894531 55.832031 588.441406 58.847656 588.988281 61.039062 C 589.539062 63.230469 589.535156 65.421875 589.535156 65.421875 C 589.535156 65.421875 591.730469 77.472656 591.859375 78.292969 C 591.878906 78.390625 591.933594 78.578125 592.011719 78.820312 C 592.042969 81.59375 592.003906 83.773438 592.003906 83.773438 L 593.191406 86.125 L 593.191406 105.78125 L 596.9375 107.878906 L 599.773438 107.878906 C 600.867188 74.550781 596.9375 14.195312 596.9375 14.195312 L 556.09375 71.761719 L 559.222656 70.566406 C 558.710938 71.21875 558.386719 71.636719 558.308594 71.738281 L 560.796875 69.953125 C 560.855469 69.910156 561.011719 69.796875 561.246094 69.628906 L 561.628906 69.355469 C 562.019531 69.074219 562.492188 68.738281 562.984375 68.382812 L 563.390625 68.089844 C 563.476562 68.03125 563.5625 67.96875 563.644531 67.910156 L 575.546875 59.371094 L 573.042969 76.332031 C 554.34375 98.664062 546.125 133.992188 546.125 134.019531 C 539.074219 144.015625 532.789062 149.46875 532.789062 149.46875 C 537.132812 149.449219 542.671875 147.390625 546.15625 145.875 C 536.75 157.710938 522.648438 167.738281 522.648438 167.738281 Z M 494.378906 174.441406 C 494.433594 174.453125 494.488281 174.464844 494.542969 174.476562 C 494.300781 171.789062 493.609375 167.144531 491.714844 162.015625 C 489.960938 157.261719 487.164062 152.089844 482.722656 147.671875 C 482.546875 147.148438 482.382812 146.6875 482.21875 146.316406 C 482.21875 146.304688 482.207031 146.292969 482.207031 146.28125 C 481.855469 145.984375 481.503906 145.691406 481.132812 145.425781 C 481.121094 145.417969 481.121094 145.417969 481.109375 145.417969 C 480.75 145.140625 480.375 144.902344 479.992188 144.695312 C 479.882812 144.78125 479.785156 144.878906 479.695312 145 C 478.074219 143.742188 476.296875 142.566406 474.324219 141.539062 C 474.300781 141.527344 474.289062 141.515625 474.269531 141.503906 L 474.269531 141.515625 L 473.027344 152.253906 C 473.027344 152.253906 473.773438 152.617188 474.980469 153.304688 L 473.027344 156.636719 C 473.027344 156.636719 473.414062 157.195312 474.003906 158.117188 C 476.042969 161.269531 480.574219 168.722656 480.703125 172.800781 C 480.703125 172.800781 484.796875 171.636719 484.90625 162.367188 L 484.90625 162.105469 C 484.90625 161.546875 484.894531 160.957031 484.859375 160.332031 C 488.992188 164.011719 492.953125 168.8125 494.378906 174.441406 Z M 716.738281 250.046875 C 716.738281 250.046875 717.285156 243.472656 714.179688 237.445312 C 711.074219 231.421875 710.546875 216.316406 710.546875 216.316406 C 693.289062 201.097656 657.90625 210.261719 657.90625 210.261719 L 710.546875 254.429688 L 716.773438 254.429688 C 715.714844 249.5 716.738281 250.046875 716.738281 250.046875 Z M 729.53125 324.558594 C 726.605469 308.851562 721.125 312.507812 721.125 312.507812 L 722.949219 338.4375 C 722.949219 338.4375 732.453125 340.265625 729.53125 324.558594 Z M 451.371094 179.382812 C 451.371094 179.382812 443.585938 171.199219 441.667969 158.269531 L 469.277344 185.125 L 451.996094 161.773438 L 485.253906 185.125 L 493.121094 189.78125 L 473.027344 163.851562 L 465.277344 161.1875 C 460.632812 157.199219 453.230469 151.851562 445.152344 149.929688 C 445.097656 149.746094 445.046875 149.546875 445 149.351562 C 444.277344 146.546875 444.59375 143.367188 446.734375 139.839844 L 443.542969 138.886719 C 448.652344 119.613281 442.820312 122.945312 442.820312 122.945312 L 433.992188 137.046875 C 433.992188 137.046875 429.441406 169.699219 451.371094 179.382812 Z M 710.398438 332.324219 C 710.398438 331.359375 710.34375 330.496094 710.222656 329.773438 C 710.101562 326.023438 710.410156 321.644531 710.410156 321.644531 L 707.964844 320.175781 L 698.691406 322.925781 C 683.800781 306.96875 651.792969 277.59375 653.5 279.417969 C 655.683594 281.742188 695.558594 344.023438 695.949219 344.632812 C 695.753906 344.972656 695.570312 345.3125 695.363281 345.660156 C 676.613281 329.527344 623.164062 294.972656 623.164062 294.972656 L 679.222656 368.058594 L 679.285156 368.082031 C 679.285156 368.082031 679.28125 368.085938 679.28125 368.089844 C 679.257812 368.078125 679.246094 368.070312 679.222656 368.058594 C 678.851562 367.882812 678.46875 367.695312 678.085938 367.5 C 663.949219 360.605469 640.175781 349.289062 632.511719 347.402344 L 653.667969 392.1875 C 635.9375 380.785156 607.097656 361.472656 600.867188 352.730469 C 600.867188 352.730469 617.785156 387.253906 635.617188 409.394531 L 570.023438 379.679688 C 566.183594 377.8125 563.886719 376.898438 563.886719 376.898438 L 616.589844 450.929688 L 618.78125 448.242188 L 626.273438 450.019531 C 626.273438 450.019531 660.265625 468.648438 632.503906 430.839844 C 632.347656 430.625 632.1875 430.421875 632.027344 430.210938 L 637.421875 423.546875 L 639.804688 425.320312 C 639.804688 425.320312 642.90625 432.3125 647.292969 434.863281 C 651.679688 437.417969 647.292969 434.863281 656.429688 429.75 C 657.4375 429.1875 658.25 428.71875 658.917969 428.3125 C 663.191406 429.035156 664.105469 425.519531 663.949219 421.824219 C 667.722656 417.378906 667.109375 417.945312 671.417969 412.140625 C 675.804688 406.210938 678 406.375 683.84375 399.066406 C 689.6875 391.757812 687.867188 395.058594 695.796875 381.03125 C 703.722656 367.015625 698.097656 376.058594 706.136719 352.730469 C 708.425781 346.089844 709.761719 340.152344 710.226562 335.648438 C 710.621094 334.867188 710.621094 334.058594 710.414062 332.40625 C 710.410156 332.378906 710.410156 332.347656 710.398438 332.324219 Z M 533.984375 399.164062 C 533.984375 399.164062 522.546875 436.511719 544.261719 462.070312 C 544.261719 462.070312 550.609375 466.277344 553.351562 466.089844 C 556.09375 465.90625 559.792969 466.097656 559.792969 466.097656 C 559.792969 466.097656 532.714844 416.246094 533.984375 399.164062 Z M 444.777344 367.839844 L 441.105469 370.578125 C 436.933594 363.957031 433.601562 360.167969 433.601562 360.167969 L 430.179688 366.300781 C 420.082031 350.921875 409.703125 341.539062 409.703125 341.539062 L 396.652344 349.894531 C 389.78125 346.226562 385.03125 344.640625 385.03125 344.640625 L 380.644531 354.691406 L 377.988281 365.964844 L 377.988281 372.648438 C 377.988281 372.648438 380.917969 383.453125 385.03125 393.589844 C 389.144531 403.722656 400.382812 410.570312 402.027344 411.667969 C 402.359375 411.890625 404.367188 413.496094 407.359375 415.921875 C 416.03125 434.535156 430.328125 460.632812 440.0625 454.769531 C 443.894531 460.824219 448.195312 461.632812 452.46875 450.359375 C 462.882812 457.824219 470.011719 461.160156 480.277344 466.089844 C 490.542969 471.023438 525.105469 473.082031 525.105469 473.082031 C 525.105469 473.082031 569.800781 476.863281 522.648438 471.824219 C 475.496094 466.789062 444.777344 367.839844 444.777344 367.839844 Z M 360.433594 85.339844 C 360.433594 85.328125 360.425781 85.328125 360.425781 85.328125 C 357.253906 83.027344 354.898438 81.0625 353.164062 79.386719 C 353.164062 79.386719 350.6875 79.628906 347.101562 80.285156 C 341.445312 81.328125 333.054688 83.433594 327.386719 87.300781 C 327.351562 87.332031 327.320312 87.34375 327.296875 87.363281 C 326.160156 88.140625 325.140625 88.996094 324.273438 89.925781 C 322.96875 91.332031 322.023438 92.910156 321.5625 94.671875 C 318.328125 107.242188 338.769531 115.941406 330.742188 136.980469 L 329.363281 133.703125 C 329.390625 133.773438 330.726562 136.996094 329.359375 138.648438 C 327.980469 140.316406 326.734375 146.71875 326.734375 146.71875 L 297.296875 127.09375 L 295.511719 126.1875 C 295.234375 126.984375 295.003906 127.816406 294.820312 128.664062 C 294.3125 130.972656 294.15625 133.4375 294.257812 136.003906 L 298.214844 127.707031 C 298.214844 127.707031 292.546875 152.210938 315.34375 179.613281 C 321.972656 184.9375 328.757812 191.558594 333.953125 199.335938 C 334.933594 200.667969 335.558594 201.5625 335.558594 201.5625 L 335.5 201.761719 C 336.460938 203.34375 337.347656 204.972656 338.15625 206.644531 L 334.503906 205.128906 L 331.1875 216.316406 L 307.058594 186.90625 C 293.511719 175.441406 283.601562 174.441406 283.601562 174.441406 C 272.582031 155.292969 286.960938 123.589844 290.761719 115.898438 C 291.277344 114.773438 291.640625 114.179688 291.640625 114.179688 L 323.679688 129.210938 L 309.359375 96.917969 L 310.558594 94.144531 L 310.542969 94.105469 C 310.542969 94.105469 310.617188 93.9375 310.769531 93.648438 L 311.011719 93.085938 L 311.042969 93.160156 C 312.910156 89.921875 320.460938 79.105469 340.863281 72.757812 C 340.863281 72.757812 342.816406 55.1875 354.875 49.074219 L 376.113281 85.960938 C 385.105469 94.53125 399.457031 108.902344 411.347656 124.015625 C 414.332031 127.808594 417.171875 131.65625 419.714844 135.46875 C 423.882812 141.679688 427.304688 147.804688 429.441406 153.492188 C 429.441406 153.492188 379.765625 99.386719 360.433594 85.339844 Z M 308.183594 126.722656 L 308.183594 125.464844 L 304.636719 123.046875 L 303.4375 123.195312 C 305.179688 124.015625 306.78125 125.023438 307.726562 126.1875 C 307.886719 126.382812 308.042969 126.558594 308.183594 126.722656 Z M 314.328125 130.601562 L 316.304688 131.011719 L 310.132812 126.800781 L 308.25 126.800781 C 310.75 129.582031 311.539062 128.203125 313.941406 130.25 C 314.070312 130.363281 314.199219 130.484375 314.328125 130.601562 Z M 327.695312 133.355469 L 329.359375 133.699219 L 328.320312 131.230469 Z M 353.132812 79.355469 C 351.960938 78.222656 351.089844 77.226562 350.445312 76.347656 L 349.472656 75.984375 Z M 500.578125 285.734375 L 537 311.722656 L 536.628906 313.328125 L 542.460938 315.351562 L 572.191406 324.5 L 560.167969 311.289062 C 571.613281 307.03125 580.214844 299.902344 580.214844 299.902344 C 553.351562 301.546875 500.578125 285.734375 500.578125 285.734375 Z M 605.246094 160.511719 L 581.203125 193.367188 C 581.203125 193.367188 581.203125 193.375 581.191406 193.398438 C 581.191406 193.433594 581.179688 193.464844 581.167969 193.519531 C 580.839844 194.976562 578.199219 206.855469 576.652344 212.246094 C 576.652344 212.246094 580.574219 209.320312 585.601562 204.089844 C 594.566406 195.046875 607.082031 179.617188 607.5625 163.664062 C 607.679688 163.839844 607.792969 164.011719 607.914062 164.199219 C 611.457031 169.578125 616.476562 179.011719 616.128906 188.6875 C 616.128906 188.6875 620.808594 180.949219 619.460938 165.832031 C 619.253906 163.410156 618.890625 160.800781 618.320312 158.007812 C 614.210938 137.734375 610.917969 136.640625 610.917969 136.640625 L 604.613281 159.648438 C 604.613281 159.648438 604.863281 159.945312 605.265625 160.464844 Z M 605.246094 160.511719 " fill-opacity="1" fill-rule="nonzero"/></g><path fill="#ffffff" d="M 365.839844 206.644531 C 367.761719 210.359375 357.363281 228.667969 354.136719 224.164062 C 350.910156 219.660156 324.226562 189.167969 324.226562 189.167969 C 310.824219 174.4375 292.007812 163.667969 292.007812 163.667969 C 284.753906 146.234375 298.210938 127.707031 298.210938 127.707031 L 328.367188 147.242188 C 331.976562 137.601562 331.09375 128.84375 329.648438 123.050781 C 328.871094 120.824219 328 118.382812 327.085938 115.886719 C 327.085938 115.886719 327.082031 115.882812 327.082031 115.882812 C 324.347656 108.433594 321.214844 100.566406 318.964844 96.917969 C 318.964844 96.917969 338.921875 79.109375 347.265625 80.34375 C 355.609375 81.582031 352.683594 95.824219 352.683594 95.824219 C 352.683594 95.824219 353.128906 104.992188 353.179688 106.570312 L 340.019531 123.699219 L 346.652344 127.707031 C 346.652344 127.707031 346.925781 129.515625 346.652344 134.890625 C 346.378906 140.265625 345.554688 139.925781 343.085938 142.117188 C 340.621094 144.308594 343.085938 143.183594 343.085938 143.183594 C 343.085938 143.183594 335.738281 150.535156 331.027344 153.058594 L 331.027344 158.660156 L 352.410156 180.71875 C 352.410156 180.71875 354.054688 184.03125 358.347656 189.78125 C 362.636719 195.535156 363.921875 202.929688 365.839844 206.644531 Z M 511.484375 62.679688 L 520.890625 125.167969 C 522.0625 61.285156 513.140625 36.75 513.140625 36.75 Z M 589.171875 43.320312 L 584.210938 62.183594 L 590.753906 101.160156 Z M 589.171875 43.320312 " fill-opacity="1" fill-rule="nonzero"/></svg>