<svg xmlns="http://www.w3.org/2000/svg" xmlns:xlink="http://www.w3.org/1999/xlink" width="1024" zoomAndPan="magnify" viewBox="0 0 768 767.999994" height="1024" preserveAspectRatio="xMidYMid meet" version="1.0"><defs><clipPath id="286c88af9e"><path d="M 84 24 L 676 24 L 676 691.453125 L 84 691.453125 Z M 84 24 " clip-rule="nonzero"/></clipPath><clipPath id="8af21c8e76"><path d="M 85 55 L 686 55 L 686 691.453125 L 85 691.453125 Z M 85 55 " clip-rule="nonzero"/></clipPath><clipPath id="2daa10f39e"><path d="M 73 14.203125 L 675 14.203125 L 675 633 L 73 633 Z M 73 14.203125 " clip-rule="nonzero"/></clipPath></defs><g clip-path="url(#286c88af9e)"><path fill="#ffffff" d="M 673.457031 444.910156 C 673.527344 444.953125 673.601562 444.996094 673.675781 445.042969 C 672.199219 450.539062 670.605469 455.921875 668.894531 461.199219 L 668.519531 462.558594 L 668.386719 462.792969 C 642.148438 542.613281 589.988281 597.246094 541.089844 633.023438 C 541.042969 633.054688 541.015625 633.082031 540.972656 633.113281 C 540.894531 633.171875 540.824219 633.214844 540.75 633.273438 C 482.863281 675.53125 429.683594 691.425781 429.683594 691.425781 C 426.863281 690.417969 424.40625 689.496094 422.144531 688.589844 C 359.496094 664.917969 314.144531 642.078125 281.332031 621.519531 C 248.5 600.945312 228.207031 582.652344 215.671875 568.074219 C 188.539062 545.042969 173.625 503.695312 165.5 468.117188 C 157.378906 432.542969 156.035156 402.726562 156.035156 402.726562 C 151.898438 350.058594 159.117188 306.351562 160.945312 296.511719 C 151.023438 283.851562 140.460938 271.789062 129.882812 259.695312 C 129.867188 259.679688 129.867188 259.679688 129.851562 259.664062 C 129.851562 259.652344 129.839844 259.652344 129.824219 259.636719 C 110.742188 242.542969 99.230469 226.589844 92.539062 212.496094 C 90.011719 207.800781 88.011719 202.902344 87.015625 197.859375 C 79.171875 169.902344 90.011719 152.175781 90.011719 152.175781 L 97.203125 156.101562 C 97.730469 156.800781 98.464844 157.386719 99.464844 157.75 C 107.054688 160.492188 113.363281 165.953125 120.894531 168.960938 C 121.097656 169.039062 121.285156 169.074219 121.476562 169.128906 C 121.582031 169.1875 121.699219 169.257812 121.804688 169.316406 C 122.492188 169.710938 123.191406 170.089844 123.878906 170.472656 C 123.820312 170.339844 123.761719 170.222656 123.703125 170.105469 C 125.191406 171.027344 126.726562 171.832031 128.347656 172.476562 C 128.453125 172.550781 128.570312 172.589844 128.671875 172.664062 C 128.699219 172.765625 128.726562 172.867188 128.757812 172.984375 C 131.753906 174.519531 134.703125 176.113281 137.390625 178.117188 C 137.480469 175.398438 137.363281 172.941406 137.128906 170.761719 L 130.675781 155.414062 C 131.738281 154.066406 132.152344 152.207031 131.144531 150.257812 C 127.230469 142.707031 121.644531 136.265625 117.179688 129.058594 L 115.199219 125.390625 C 115.199219 125.390625 123.351562 106.953125 155.597656 96.90625 C 156.648438 86.101562 168.164062 80.589844 168.164062 80.589844 C 180.523438 74.523438 187.519531 91.03125 190.953125 103.765625 C 190.953125 103.765625 224.367188 133.300781 249.511719 165.308594 C 264.546875 159.945312 316.675781 140.933594 342.421875 126.738281 C 348.03125 106.148438 353.933594 91.234375 359.121094 80.632812 L 359.132812 80.605469 C 359.148438 80.578125 359.164062 80.546875 359.179688 80.503906 C 360.421875 77.871094 380.273438 35.640625 386.058594 24.910156 C 386.90625 24.863281 387.769531 24.835938 388.617188 24.851562 C 391.800781 35.40625 400.320312 78.148438 399.867188 101.179688 L 429.4375 82.914062 L 448.621094 91.339844 C 457.972656 79.492188 484.210938 46.738281 490.027344 44.34375 C 494.484375 42.515625 494.863281 70.3125 494.539062 91.46875 C 494.539062 91.5 494.527344 91.542969 494.539062 91.570312 C 494.585938 95.652344 494.453125 101.019531 494.160156 107.277344 C 494.160156 107.453125 494.160156 108.957031 494.132812 111.398438 C 562.421875 148.453125 652.496094 150.585938 652.496094 150.585938 C 671.96875 207.554688 675.871094 436.273438 675.871094 436.273438 Z M 673.457031 444.910156 " fill-opacity="1" fill-rule="nonzero"/></g><g clip-path="url(#8af21c8e76)"><path fill="#000000" d="M 245.902344 521.296875 C 246.953125 523.183594 248.0625 525.054688 249.203125 526.894531 C 247.875 525.144531 246.792969 523.269531 245.902344 521.296875 Z M 675.800781 436.5 C 674.71875 441.613281 673.421875 446.871094 671.984375 451.039062 C 670.996094 454.464844 669.976562 457.863281 668.894531 461.199219 L 668.519531 462.558594 L 668.386719 462.792969 C 642.148438 542.613281 589.988281 597.242188 541.089844 633.023438 C 541.042969 633.054688 541.015625 633.082031 540.972656 633.109375 C 540.894531 633.171875 540.824219 633.214844 540.75 633.273438 C 482.863281 675.53125 429.683594 691.425781 429.683594 691.425781 C 426.863281 690.414062 424.40625 689.496094 422.144531 688.589844 C 359.496094 664.914062 314.144531 642.078125 281.332031 621.515625 C 248.5 600.945312 228.207031 582.652344 215.671875 568.074219 C 188.539062 545.042969 173.625 503.691406 165.5 468.117188 C 157.378906 432.542969 156.035156 402.726562 156.035156 402.726562 C 153.085938 365.160156 155.910156 332.160156 158.4375 312.75 L 112.171875 241.371094 L 124.011719 252.96875 C 118.519531 246.667969 113.066406 240.324219 107.71875 233.855469 C 102.441406 227.480469 96.746094 220.269531 92.535156 212.492188 C 90.011719 207.796875 88.007812 202.902344 87.015625 197.855469 C 87 197.78125 86.984375 197.722656 86.96875 197.652344 C 86.585938 195.664062 86.347656 193.730469 86.230469 191.816406 L 86.140625 191.65625 L 86.199219 191.164062 C 86.011719 186.984375 86.488281 182.914062 87.6875 178.730469 L 88.066406 175.570312 L 86.140625 169.738281 L 85.195312 166.375 L 92.085938 167.992188 C 92.730469 167.054688 93.605469 166.253906 94.625 165.613281 C 99.359375 159.355469 105.332031 161.621094 105.332031 161.621094 C 105.332031 161.753906 105.347656 161.886719 105.363281 162.019531 C 107.144531 162.25 109 162.820312 110.855469 163.566406 L 110.871094 163.582031 C 111.265625 163.726562 111.644531 163.886719 112.039062 164.0625 C 112.902344 164.445312 113.761719 164.871094 114.609375 165.292969 C 114.726562 165.628906 114.988281 165.921875 115.414062 166.125 C 116.304688 166.550781 117.210938 166.960938 118.117188 167.371094 C 118.671875 167.617188 119.226562 167.882812 119.78125 168.128906 L 119.765625 168.144531 C 120.46875 168.554688 121.15625 168.949219 121.796875 169.3125 C 122.484375 169.707031 123.183594 170.089844 123.871094 170.46875 C 123.8125 170.335938 123.753906 170.21875 123.695312 170.101562 C 125.1875 171.023438 126.71875 171.828125 128.34375 172.472656 C 128.445312 172.546875 128.5625 172.589844 128.664062 172.660156 C 128.691406 172.765625 128.722656 172.867188 128.75 172.984375 C 131.601562 174.441406 134.402344 175.96875 136.984375 177.835938 C 137.097656 176.511719 137.21875 174.820312 137.304688 172.957031 C 137.257812 172.199219 137.199219 171.460938 137.125 170.757812 C 136.832031 168.039062 136.320312 165.746094 135.734375 163.84375 C 135.488281 164.105469 135.238281 164.339844 134.960938 164.558594 C 134.316406 162.71875 133.5 160.960938 132.582031 159.238281 C 132.710938 158.988281 132.828125 158.742188 132.929688 158.535156 C 132.972656 158.433594 133.0625 158.347656 133.121094 158.257812 C 132.683594 157.570312 132.273438 156.898438 131.878906 156.226562 L 131.863281 156.210938 C 130.476562 153.929688 129.308594 151.796875 128.328125 149.851562 C 128.3125 150.203125 128.3125 150.554688 128.3125 150.902344 C 128.300781 150.875 128.3125 150.832031 128.300781 150.789062 C 128.183594 150.4375 128.023438 150.144531 127.804688 149.894531 C 127.597656 149.457031 127.378906 149.003906 127.144531 148.566406 C 126.824219 147.90625 126.488281 147.234375 126.136719 146.589844 C 126.050781 146.386719 125.960938 146.210938 125.84375 146.050781 C 125.800781 145.976562 125.773438 145.917969 125.742188 145.84375 C 125.832031 145.496094 125.902344 145.160156 126.003906 144.808594 C 124.410156 141.003906 123.828125 138.710938 123.828125 138.710938 C 122.535156 130.871094 124.625 124.5625 128.292969 119.535156 L 128.242188 118.546875 C 128.242188 118.546875 128.242188 118.546875 128.957031 115.625 C 129.671875 112.707031 128.957031 110.097656 128.957031 110.097656 L 131.082031 108.558594 C 131.082031 108.558594 138.636719 103.921875 145.683594 100.542969 C 149.304688 98.804688 152.699219 98.980469 155.542969 99.554688 C 155.488281 98.640625 155.507812 97.753906 155.589844 96.90625 C 156.640625 86.097656 168.15625 80.585938 168.15625 80.585938 C 180.515625 74.519531 187.515625 91.027344 190.949219 103.761719 C 191.824219 107.007812 192.484375 110.007812 192.921875 112.332031 C 193.535156 112.757812 194.164062 113.179688 194.789062 113.617188 C 196.734375 114.246094 200.09375 116.820312 204.300781 120.59375 C 204.375 120.667969 204.460938 120.742188 204.535156 120.796875 C 204.535156 120.796875 204.535156 120.796875 204.550781 120.8125 C 217.203125 132.1875 237.101562 154.019531 247.765625 165.9375 C 248.277344 165.761719 248.847656 165.542969 249.503906 165.308594 C 264.539062 159.941406 316.667969 140.933594 342.410156 126.734375 C 348.023438 106.148438 353.925781 91.230469 359.113281 80.632812 L 359.125 80.601562 C 359.140625 80.574219 359.15625 80.542969 359.167969 80.5 C 367.847656 62.820312 374.523438 57.191406 374.523438 57.191406 C 374.523438 57.191406 374.976562 56.679688 375.707031 56.300781 C 375.707031 56.300781 393.707031 45.40625 399.539062 101.367188 L 399.859375 101.175781 L 429.429688 82.914062 L 448.613281 91.335938 L 448.746094 91.394531 C 467.136719 74.988281 483.007812 68.523438 483.007812 68.523438 C 483.007812 68.523438 492.503906 65.234375 494.332031 86.800781 C 494.429688 88.074219 494.503906 89.640625 494.53125 91.46875 C 494.53125 91.496094 494.519531 91.539062 494.53125 91.570312 C 494.578125 95.648438 494.445312 101.015625 494.152344 107.273438 C 494.152344 107.449219 494.152344 108.953125 494.125 111.394531 C 562.414062 148.449219 652.484375 150.585938 652.484375 150.585938 C 652.65625 151.082031 652.824219 151.597656 652.992188 152.121094 C 652.992188 152.121094 664.53125 184.929688 673.109375 236.625 C 683.425781 288.25 690.925781 356.277344 678.863281 419.503906 C 678.375 422.71875 677.3125 429.300781 675.859375 436.203125 C 675.863281 436.246094 675.863281 436.273438 675.863281 436.273438 Z M 373.054688 160.058594 C 382.128906 162.804688 389.898438 166.535156 395.265625 169.472656 C 396.578125 153.972656 398.226562 111.640625 382.609375 71.375 C 383.691406 88.117188 382.464844 118.835938 373.054688 160.058594 Z M 343.730469 155.65625 C 343.894531 155.65625 344.054688 155.65625 344.199219 155.671875 C 347.136719 155.730469 349.953125 155.976562 352.570312 156.355469 C 354.441406 157.425781 357.246094 156.648438 356.925781 154.003906 C 356.71875 152.351562 356.644531 150.714844 356.691406 149.089844 C 356.691406 148.738281 356.703125 148.375 356.734375 148.023438 C 356.980469 143.023438 358.222656 138.167969 359.742188 133.355469 C 360.09375 132.21875 360.472656 131.074219 360.839844 129.949219 C 362.429688 125.214844 364.109375 120.503906 365.222656 115.679688 C 365.441406 114.742188 365.234375 113.9375 364.796875 113.328125 C 364.828125 113.078125 364.839844 112.828125 364.871094 112.582031 C 366.945312 92.300781 375.535156 80.164062 376.707031 78.585938 C 376.851562 71.230469 376.472656 64.738281 375.289062 59.824219 C 360.53125 84.917969 352.335938 112.523438 347.980469 132 C 346.898438 136.839844 346.054688 141.167969 345.410156 144.839844 C 345.234375 145.773438 345.089844 146.683594 344.925781 147.527344 C 344.332031 151.152344 343.953125 153.929688 343.730469 155.65625 Z M 250.855469 529.453125 C 251.21875 529.980469 251.539062 530.539062 251.90625 531.066406 C 245.476562 518.082031 239.007812 500.722656 240.378906 485.386719 C 238.554688 484.304688 236.757812 483.179688 234.988281 481.992188 C 234.785156 481.875 234.59375 481.742188 234.390625 481.613281 C 232.589844 480.414062 230.839844 479.15625 229.144531 477.871094 C 226.425781 475.761719 223.871094 473.554688 221.589844 471.214844 C 221.691406 471.875 221.78125 472.53125 221.898438 473.191406 C 223.636719 484.171875 226.617188 494.054688 230.167969 502.785156 C 231.320312 512.054688 233.542969 521.222656 239.636719 528.34375 C 240.628906 529.484375 241.855469 529.617188 242.894531 529.191406 C 243.65625 530.40625 244.5 531.589844 245.480469 532.730469 C 247.875 535.496094 251.644531 532.394531 250.855469 529.453125 Z M 453.792969 612.859375 C 453.746094 612.730469 453.703125 612.585938 453.660156 612.4375 C 453.46875 612.320312 453.277344 612.203125 453.105469 612.085938 C 453.339844 612.347656 453.558594 612.597656 453.792969 612.859375 Z M 628.503906 463.40625 C 628.207031 462.808594 627.929688 462.210938 627.621094 461.625 C 623.195312 452.71875 617.980469 444.984375 614.3125 440.011719 C 614.125 439.839844 613.949219 439.675781 613.757812 439.5 L 583.96875 439.5 C 584.027344 439.574219 584.085938 439.644531 584.144531 439.722656 C 583.296875 439.515625 582.390625 439.398438 581.414062 439.398438 C 580.8125 439.398438 580.257812 439.441406 579.703125 439.53125 C 579.703125 439.515625 579.691406 439.515625 579.691406 439.5 L 359.074219 439.5 C 382.871094 459.722656 416.316406 461.550781 416.316406 461.550781 C 377.4375 473.277344 350.804688 468.582031 334.730469 462.003906 C 353.433594 477.359375 371.695312 484.128906 378.359375 486.246094 C 380.054688 486.789062 381.003906 487.023438 381.003906 487.023438 C 379.175781 487.269531 377.378906 487.492188 375.613281 487.636719 C 329.851562 492.007812 303.449219 469.695312 293.429688 458.710938 C 295.082031 463.507812 297.34375 469.796875 300.046875 476.230469 C 300.148438 476.40625 300.265625 476.566406 300.382812 476.726562 C 300.382812 476.726562 300.339844 476.726562 300.25 476.699219 C 304.765625 487.402344 310.480469 498.410156 316.382812 503.542969 C 317.054688 504.128906 317.742188 504.640625 318.425781 505.0625 C 318.425781 505.0625 316.425781 504.742188 313.066406 503.96875 C 301.902344 501.394531 275.691406 493.847656 257.621094 476.679688 C 255.574219 474.753906 253.644531 472.691406 251.863281 470.511719 C 251.394531 469.957031 250.945312 469.398438 250.519531 468.828125 C 249.261719 468.273438 248.035156 467.691406 246.808594 467.0625 C 246.835938 467.164062 246.882812 467.277344 246.925781 467.382812 C 247.582031 469.132812 248.355469 471.078125 249.292969 473.113281 C 249.761719 474.152344 250.269531 475.203125 250.8125 476.289062 C 251.394531 477.429688 252.023438 478.582031 252.695312 479.738281 C 256.917969 487.09375 263.011719 494.640625 271.5 499.304688 C 271.324219 499.402344 271.164062 499.523438 271.015625 499.652344 C 265.1875 497.503906 257.09375 494.246094 248.707031 489.960938 C 261.082031 506.570312 285.085938 540.875 292.347656 566.242188 C 292.363281 566.273438 292.363281 566.300781 292.363281 566.316406 C 292.710938 567.558594 293.035156 568.785156 293.296875 569.984375 C 293.003906 573.011719 292.609375 575.996094 292.113281 578.90625 C 291.644531 581.699219 293.488281 583.714844 295.605469 584.375 C 295.328125 585.382812 295.035156 586.390625 294.742188 587.402344 C 295.53125 586.726562 296.464844 585.863281 297.460938 584.753906 C 297.519531 584.695312 297.5625 584.636719 297.621094 584.578125 C 297.738281 584.5625 297.839844 584.546875 297.941406 584.519531 C 299.375 584.257812 300.574219 583.261719 300.894531 581.316406 C 300.964844 580.90625 301.027344 580.496094 301.097656 580.074219 C 305.804688 572.96875 310.523438 561.050781 310.171875 542.113281 C 310.128906 538.972656 309.921875 535.636719 309.558594 532.085938 C 307.191406 523.207031 304.796875 514.449219 300.542969 505.984375 C 300.484375 505.851562 300.414062 505.707031 300.339844 505.574219 C 300.3125 505.5 300.414062 505.441406 300.457031 505.515625 C 300.457031 505.515625 300.46875 505.53125 300.484375 505.558594 C 306.09375 513.574219 310.710938 522.945312 312.960938 532.714844 C 318.335938 543.753906 328.171875 561.871094 342.355469 579.515625 C 344.722656 584.78125 347.617188 589.871094 351.210938 594.8125 C 354.660156 599.566406 360.066406 608.191406 366.40625 614.421875 L 366.421875 614.433594 C 370.921875 618.851562 375.902344 622.070312 381.003906 621.804688 C 381.511719 621.789062 382.039062 621.730469 382.550781 621.628906 L 382.566406 621.628906 C 382.726562 621.601562 382.871094 621.570312 383.035156 621.527344 C 392.472656 619.320312 390.121094 606.332031 382.15625 604.871094 C 381.5 604.304688 380.855469 603.703125 380.230469 603.101562 C 378.167969 601.144531 376.296875 598.980469 374.441406 596.832031 C 373.914062 596.230469 373.417969 595.632812 372.921875 595.019531 C 372.75 594.828125 372.589844 594.625 372.425781 594.433594 C 372.164062 593.878906 371.902344 593.320312 371.636719 592.765625 C 371.886719 592.722656 372.148438 592.664062 372.398438 592.589844 C 375.875 591.699219 378.796875 589.050781 379.105469 585.777344 C 380.699219 587.824219 382.289062 589.859375 383.867188 591.828125 C 383.5 591.171875 383.152344 590.527344 382.800781 589.855469 C 382.230469 588.773438 381.664062 587.675781 381.09375 586.59375 C 381.691406 587.28125 382.320312 587.953125 382.976562 588.613281 C 389.800781 595.351562 399.792969 587.152344 397.222656 579.765625 C 397.5 579.972656 397.792969 580.148438 398.085938 580.308594 C 398.875 582.253906 399.792969 584.15625 400.933594 585.96875 C 407.933594 597.109375 420.191406 606.761719 431.964844 612.375 C 434.507812 613.589844 437.09375 613.632812 439.257812 612.828125 C 442.53125 614.832031 445.960938 616.792969 449.570312 618.632812 C 446.605469 616.511719 443.667969 614.335938 440.792969 612.054688 C 441.625 611.542969 442.355469 610.882812 442.953125 610.125 C 444.722656 611.367188 446.605469 612.609375 448.476562 613.941406 C 446.925781 612.171875 445.394531 610.371094 443.902344 608.558594 C 444.691406 606.894531 444.984375 604.890625 444.546875 602.695312 L 444.371094 601.804688 C 444.386719 601.410156 444.386719 601.015625 444.355469 600.589844 C 444.222656 598.617188 444.121094 596.597656 444.050781 594.550781 C 444.03125 594.332031 444.019531 594.113281 444.019531 593.894531 C 444.195312 594.261719 444.355469 594.640625 444.546875 595.003906 C 444.617188 595.140625 444.691406 595.285156 444.765625 595.417969 C 446.871094 599.496094 449.601562 603.269531 452.027344 607.15625 C 451.558594 605.59375 451.074219 603.941406 450.59375 602.214844 C 447.148438 589.917969 443.570312 574.109375 443.570312 561.289062 C 443.570312 561.289062 468.945312 583.996094 497.550781 597.972656 C 502.503906 594.613281 507.488281 591.058594 512.511719 587.417969 C 512.617188 587.386719 512.703125 587.371094 512.804688 587.359375 C 515.476562 586.613281 517.507812 585.152344 519.203125 583.175781 C 521.90625 581.902344 524.039062 579.738281 525.339844 577.152344 C 529.210938 573.746094 533.097656 570.203125 536.972656 566.535156 C 535.832031 565.71875 534.707031 564.867188 533.582031 564.019531 C 510.132812 546.195312 488.128906 521.179688 487.414062 520.359375 C 506.261719 531.984375 530.585938 540.917969 548.714844 546.617188 C 550.515625 547.175781 552.238281 547.714844 553.902344 548.210938 C 553.070312 547.703125 552.222656 547.175781 551.390625 546.664062 C 551.699219 546.75 551.988281 546.855469 552.296875 546.941406 C 553.113281 547.175781 553.902344 547.308594 554.648438 547.363281 C 555.394531 547.425781 556.097656 547.394531 556.75 547.292969 C 559.105469 546.96875 561.050781 545.785156 562.480469 544.132812 C 564 542.4375 564.964844 540.230469 565.269531 537.949219 C 567.257812 535.828125 569.230469 533.707031 571.171875 531.589844 C 571.011719 531.472656 570.863281 531.351562 570.707031 531.222656 C 572.707031 529.480469 574.503906 527.566406 576.273438 525.605469 C 576.34375 525.648438 576.417969 525.679688 576.488281 525.722656 C 578.214844 523.808594 579.894531 521.921875 581.574219 520.019531 C 582.289062 519.582031 582.945312 519.042969 583.53125 518.382812 C 590.734375 510.167969 599.5 503.324219 605.15625 493.820312 C 605.695312 492.894531 606.078125 491.976562 606.339844 491.070312 C 606.371094 491.039062 606.398438 490.996094 606.425781 490.96875 C 607.769531 489.332031 609.085938 487.734375 610.359375 486.171875 C 610.386719 486.140625 610.402344 486.113281 610.429688 486.085938 C 611.144531 485.207031 611.847656 484.359375 612.535156 483.511719 C 612.519531 483.496094 612.503906 483.46875 612.476562 483.453125 C 612.449219 483.410156 612.402344 483.363281 612.359375 483.320312 C 612.664062 483.011719 612.988281 482.691406 613.296875 482.382812 C 613.394531 482.28125 613.484375 482.195312 613.585938 482.089844 C 616.203125 479.488281 618.570312 476.828125 620.730469 473.84375 C 621.140625 473.289062 621.449219 472.703125 621.683594 472.105469 C 624.382812 468.699219 626.675781 465.761719 628.503906 463.40625 Z M 642.292969 442.90625 C 639.882812 442 637.351562 440.699219 635.207031 439.5 L 619.152344 439.5 C 620.550781 440.539062 622.011719 441.476562 623.652344 442.207031 C 626.527344 443.480469 629.496094 444.589844 632.445312 445.644531 C 634.53125 446.386719 636.636719 447.132812 638.769531 447.761719 C 639.253906 447.804688 639.722656 447.835938 640.203125 447.863281 C 640.964844 446.226562 641.652344 444.574219 642.292969 442.90625 Z M 644.601562 336.414062 C 628.71875 269.648438 574.019531 237.832031 532.394531 223.003906 C 530.511719 222.332031 528.636719 221.691406 526.796875 221.105469 C 526.347656 220.945312 525.90625 220.796875 525.453125 220.652344 C 525.570312 225.125 524.738281 229.746094 522.296875 232.90625 C 522.226562 232.992188 522.097656 233.023438 521.964844 233.023438 C 521.945312 233.183594 521.945312 233.34375 521.902344 233.503906 C 521.789062 234.015625 521.144531 234.132812 520.792969 233.796875 C 520.558594 233.578125 520.386719 233.328125 520.195312 233.082031 C 520.269531 232.816406 520.351562 232.554688 520.414062 232.289062 C 521.40625 227.960938 518.675781 224.847656 515.390625 223.808594 C 515.226562 223.558594 515.082031 223.3125 514.917969 223.066406 C 513.851562 221.472656 512.683594 220.140625 511.414062 218.925781 C 510.917969 218.445312 510.390625 217.976562 509.863281 217.507812 C 509.148438 216.894531 508.386719 216.292969 507.613281 215.664062 C 507.730469 216.292969 507.847656 216.910156 507.949219 217.539062 C 508.371094 220.152344 508.5625 222.640625 508.621094 225.097656 C 508.621094 225.109375 508.621094 225.109375 508.621094 225.109375 C 507.757812 225.929688 507.101562 227.042969 506.765625 228.515625 C 505.859375 232.4375 504.03125 235.855469 501.664062 238.957031 C 501.652344 238.929688 501.621094 238.914062 501.605469 238.882812 C 501.621094 238.925781 501.621094 238.957031 501.636719 239 C 497.414062 244.511719 491.46875 249 485.78125 253.359375 C 485.78125 253.214844 485.800781 253.066406 485.8125 252.917969 C 485.695312 253.152344 485.546875 253.402344 485.414062 253.636719 C 482.84375 255.609375 480.320312 257.582031 478.066406 259.617188 C 477.164062 259.953125 476.269531 260.332031 475.394531 260.757812 C 475.527344 259.878906 475.644531 258.988281 475.773438 258.050781 C 475.789062 257.980469 475.800781 257.933594 475.800781 257.890625 C 477.601562 245.183594 479.835938 227.375 481.910156 210.105469 L 484.449219 181.167969 L 488.542969 134.804688 L 488.542969 134.714844 C 488.265625 109.917969 486.132812 88.449219 480.257812 80.863281 C 475.234375 103.160156 464.171875 151.210938 454.035156 187.632812 L 454.035156 187.648438 C 452.925781 191.683594 451.8125 195.574219 450.71875 199.273438 C 450.71875 199.273438 450.71875 199.285156 450.703125 199.316406 C 449.019531 204.988281 447.402344 210.195312 445.867188 214.769531 C 445.867188 214.785156 445.851562 214.800781 445.851562 214.816406 C 445.679688 216.804688 445.3125 218.746094 444.714844 220.632812 C 444.476562 221.292969 444.246094 221.980469 444 222.667969 C 443.722656 223.382812 443.410156 224.070312 443.0625 224.757812 L 443.0625 224.773438 C 442.960938 224.976562 442.859375 225.179688 442.742188 225.386719 C 442.726562 225.402344 442.714844 225.429688 442.699219 225.445312 C 442.667969 225.488281 442.640625 225.53125 442.613281 225.578125 C 442.433594 226.367188 442.234375 227.140625 442.011719 227.929688 C 441.371094 230.136719 440.523438 232.273438 439.351562 234.1875 C 438.359375 235.824219 437.132812 237.304688 435.609375 238.503906 C 435.027344 238.957031 434.382812 239.363281 433.714844 239.730469 C 433.640625 239.597656 433.597656 239.480469 433.507812 239.351562 C 432.867188 238.328125 432.296875 237.289062 431.757812 236.234375 C 432.53125 235.589844 433.246094 234.859375 433.859375 234.058594 C 433.027344 234.453125 432.136719 234.804688 431.230469 235.109375 C 430.910156 234.4375 430.617188 233.765625 430.324219 233.078125 C 430.164062 232.421875 430 231.777344 429.855469 231.105469 C 430.980469 230.402344 431.992188 229.480469 432.921875 228.371094 C 431.683594 228.296875 430.453125 228.046875 429.226562 227.710938 C 429.082031 226.730469 428.96875 225.722656 428.863281 224.683594 C 429.386719 224.144531 429.828125 223.515625 430.148438 222.8125 C 430.820312 222.886719 431.492188 222.902344 432.179688 222.84375 C 431.59375 222.566406 431.027344 222.273438 430.46875 221.949219 C 430.792969 220.867188 430.863281 219.640625 430.558594 218.28125 C 429.945312 215.515625 429.285156 212.738281 428.640625 209.972656 C 428.949219 204.167969 429.605469 198.378906 430.324219 192.648438 C 431.871094 180.378906 434.28125 168.300781 437.367188 156.398438 C 438.769531 153.914062 440.242188 151.515625 441.585938 149.046875 C 441.894531 150.011719 442.101562 150.582031 442.101562 150.582031 C 442.332031 149.121094 442.667969 147.640625 443.0625 146.148438 C 444.203125 143.78125 445.152344 141.296875 445.753906 138.605469 C 453.203125 121.394531 468.367188 105.515625 468.398438 105.484375 C 469.144531 102.007812 469.84375 98.6875 470.488281 95.574219 C 472.253906 86.988281 473.523438 80.042969 474.09375 75.640625 C 474.136719 75.320312 474.179688 75 474.210938 74.707031 C 473.714844 75.085938 473.214844 75.46875 472.722656 75.847656 C 461.265625 84.738281 451.347656 94.988281 442.769531 105.78125 C 435.960938 116.335938 426.171875 131.585938 417.523438 145.433594 C 399.742188 180.222656 393.519531 210.722656 393.519531 210.722656 C 394.015625 202.957031 394.90625 195.589844 396.121094 188.570312 C 389.675781 172.894531 371.574219 165.378906 357.386719 161.855469 C 340.382812 159.238281 322.003906 162.191406 321.753906 162.234375 C 311.804688 165.074219 301.472656 169.753906 296.726562 177.457031 C 288.71875 190.457031 301.253906 183.863281 311.292969 185.398438 C 320.261719 184.972656 327.511719 186.304688 333.339844 188.660156 C 333.367188 188.660156 333.382812 188.675781 333.414062 188.6875 C 336.917969 190.105469 339.914062 191.875 342.457031 193.863281 C 342.46875 193.863281 342.46875 193.863281 342.484375 193.878906 C 342.996094 194.273438 343.464844 194.667969 343.929688 195.0625 C 352.480469 202.417969 355.589844 211.9375 356.582031 216.015625 C 356.890625 217.289062 356.992188 218.035156 356.992188 218.035156 C 353.414062 208.105469 347.453125 203.074219 341.300781 200.707031 C 342.351562 201.539062 343.316406 202.433594 344.164062 203.292969 C 348.023438 207.214844 350.898438 211.511719 351.570312 216.996094 C 351.570312 217.039062 351.511719 217.039062 351.5 217.023438 C 348.839844 212.566406 345.773438 207.886719 341.390625 204.945312 C 341.125 204.773438 340.847656 204.625 340.585938 204.464844 C 343.886719 208.441406 346.125 212.828125 347.511719 216.132812 C 347.703125 216.601562 347.875 217.039062 348.035156 217.464844 C 347.875 217.125 347.699219 216.804688 347.511719 216.484375 C 344.9375 212.15625 340.351562 209.347656 335.941406 207.535156 C 341.285156 212.769531 345.011719 221.660156 342.382812 226.808594 C 342.335938 226.925781 342.191406 226.878906 342.164062 226.777344 C 341.257812 224.378906 341.359375 221.765625 340.378906 219.394531 C 339.226562 216.574219 337.269531 214.144531 334.945312 212.199219 C 334.316406 211.675781 333.644531 211.179688 332.972656 210.679688 C 332.972656 210.722656 332.988281 210.769531 332.988281 210.8125 C 333.527344 215.535156 333.394531 220.257812 331.746094 224.6875 C 331.570312 225.183594 331.351562 225.683594 331.132812 226.179688 C 331.058594 226.339844 330.957031 226.445312 330.839844 226.53125 C 331.277344 228.140625 331.539062 229.121094 331.539062 229.121094 L 307.785156 213.796875 L 301.296875 209.613281 L 294.53125 205.242188 C 292.515625 203.9375 290.472656 203.617188 288.570312 203.835938 C 287.738281 201.835938 286.542969 199.992188 285.023438 198.425781 C 284.890625 198.238281 284.773438 198.046875 284.628906 197.855469 C 283.808594 191.320312 290.089844 188.25 290.472656 188.089844 C 286.132812 192.605469 286.964844 196.890625 287.753906 198.894531 C 288.015625 198.894531 288.28125 198.894531 288.542969 198.910156 C 289.476562 193.925781 291.726562 191.160156 294.109375 189.667969 C 292.734375 189.320312 291.480469 188.804688 290.484375 188.074219 C 290.136719 187.8125 289.828125 187.53125 289.519531 187.210938 C 287.300781 185.121094 283.71875 183.6875 279.671875 182.695312 L 271.828125 181.320312 C 267.78125 180.835938 263.808594 180.648438 260.652344 180.589844 C 260.140625 180.574219 259.65625 180.574219 259.1875 180.574219 C 259.628906 181.292969 260.082031 182.023438 260.5625 182.710938 C 261.949219 184.742188 263.296875 186.90625 263.835938 189.347656 C 263.925781 189.757812 263.515625 190.035156 263.148438 189.859375 C 260.503906 188.589844 258.648438 186.203125 257.085938 183.792969 C 256.398438 182.738281 255.742188 181.699219 255.203125 180.605469 C 254.429688 180.617188 253.988281 180.632812 253.988281 180.632812 C 250.996094 175.644531 240.386719 164.371094 228.875 152.792969 C 217.375 141.199219 204.972656 129.308594 198.425781 123.066406 L 198.410156 123.050781 C 197.503906 122.1875 196.703125 121.425781 196.046875 120.796875 C 194.246094 119.101562 188.359375 116.410156 181.667969 113.691406 C 181.667969 113.679688 181.652344 113.679688 181.652344 113.679688 C 175.675781 111.257812 169.0625 108.808594 164.121094 107.03125 C 147.765625 113.714844 128.953125 132.101562 128.953125 132.101562 L 128.601562 125.398438 C 127.75 127.601562 128.082031 129.914062 128.953125 132.101562 C 128.910156 138.023438 132.636719 145.277344 134.40625 149.472656 C 136.011719 153.300781 138.101562 157.519531 139.832031 161.886719 L 143.835938 163.089844 C 143.835938 163.089844 149.425781 182.460938 137.738281 198.027344 C 137.738281 198.027344 134.875 189.128906 128.269531 185.09375 C 123.785156 183.515625 119.429688 181.113281 115.542969 178.597656 C 110.359375 175.25 106.003906 171.710938 103.332031 169.710938 C 103.050781 169.679688 102.773438 169.652344 102.46875 169.636719 C 101.492188 169.609375 100.496094 169.621094 99.519531 169.738281 C 99.519531 169.738281 96.207031 194.882812 102.011719 216.578125 C 103.554688 218.769531 105.148438 220.914062 106.824219 222.992188 C 112.769531 230.390625 119.445312 237.207031 125.933594 244.179688 C 146.402344 266.230469 167.453125 288.457031 183.570312 314 C 188.171875 321.300781 192.308594 328.828125 196.382812 336.417969 L 605.035156 336.417969 C 603.222656 334.457031 601.453125 332.484375 599.730469 330.523438 C 594.453125 324.558594 588.363281 319.03125 584.386719 312.070312 C 584.285156 311.882812 584.519531 311.71875 584.679688 311.851562 C 591.402344 317.304688 598.121094 323.460938 604.359375 329.574219 C 609.871094 330.730469 618.574219 333.578125 626.625 336.414062 L 634.207031 336.414062 C 629.402344 329.222656 624.160156 322.320312 618.355469 315.886719 C 611.855469 308.675781 604.988281 301.542969 597.597656 295.253906 C 591.296875 289.917969 584.316406 285.734375 577.859375 280.644531 C 577.726562 280.542969 577.886719 280.367188 578.019531 280.398438 C 596.308594 283 614.074219 298.484375 625.996094 311.71875 C 632.675781 319.128906 638.824219 327.113281 644.070312 335.609375 C 644.230469 335.886719 644.40625 336.136719 644.566406 336.414062 Z M 294.507812 201.203125 C 294.523438 201.203125 294.539062 201.21875 294.539062 201.21875 L 323.027344 218.398438 L 322.5625 215.957031 L 320.472656 205.238281 L 319.039062 200.601562 C 315.871094 191.960938 311.925781 190.015625 309.980469 189.605469 L 308.78125 189.519531 C 308.78125 189.519531 303.699219 190.5 298.585938 190.265625 C 295.195312 193.085938 294.363281 196.496094 294.347656 199.109375 C 294.347656 199.886719 294.421875 200.605469 294.507812 201.203125 Z M 294.507812 201.203125 " fill-opacity="1" fill-rule="nonzero"/></g><path fill="#000000" d="M 252.738281 534.074219 C 253.601562 534.71875 254.460938 535.320312 255.355469 535.832031 C 255.355469 535.832031 248.136719 539.105469 245.902344 539.296875 C 243.664062 539.484375 240.917969 538.5625 237.910156 537.46875 C 234.898438 536.371094 231.160156 532.175781 226.277344 528.328125 C 221.386719 524.484375 216.269531 520.097656 216.269531 520.097656 C 216.269531 520.097656 210.96875 518.824219 208.964844 511.515625 C 206.964844 504.203125 205.503906 500.914062 205.125 498.894531 C 204.773438 496.890625 205.679688 493.601562 205.125 492.695312 C 204.582031 491.773438 205.503906 489.390625 205.035156 488.203125 L 220.464844 468.726562 C 220.597656 468.726562 221.078125 470.378906 221.898438 473.1875 C 225.273438 484.796875 234.402344 516.042969 248.839844 530.667969 C 243.929688 522.785156 234.769531 505.003906 234.988281 481.988281 C 235.003906 479.300781 235.148438 476.523438 235.457031 473.683594 C 239.28125 437.863281 247.550781 482.269531 247.550781 482.269531 C 247.550781 482.269531 246.585938 492.871094 246.761719 496.523438 C 246.953125 500.179688 245.59375 508.222656 247.550781 512.785156 C 249.507812 517.363281 252.386719 520.285156 251.863281 522.667969 C 251.335938 525.039062 254.070312 531.792969 254.257812 532.347656 Z M 462.574219 649.664062 C 458.6875 651.289062 438.710938 650.46875 437.253906 649.664062 L 409.507812 635.449219 C 407.183594 639.371094 402.027344 646.34375 394.402344 647.382812 C 383.675781 648.84375 373.460938 652.75 365.910156 644.941406 C 358.355469 637.148438 352.511719 626.429688 349.589844 624.472656 C 346.667969 622.527344 339.347656 616.792969 339.347656 616.792969 C 335.769531 644.253906 331.515625 618.195312 327.675781 615.214844 L 297.941406 584.523438 L 297.316406 583.878906 C 297.371094 584.171875 297.417969 584.464844 297.460938 584.757812 C 298.453125 590.636719 298.703125 596.292969 297.972656 601.558594 L 247.550781 492.386719 C 247.550781 492.386719 278.863281 529.820312 292.347656 566.246094 C 292.363281 566.273438 292.363281 566.304688 292.363281 566.320312 C 294.566406 572.253906 296.277344 578.148438 297.300781 583.867188 C 297.300781 583.867188 310.945312 570.121094 302.3125 516.015625 C 301.816406 512.8125 301.214844 509.480469 300.542969 505.984375 C 300.515625 505.855469 300.484375 505.707031 300.46875 505.5625 C 300.457031 505.546875 300.457031 505.53125 300.457031 505.519531 C 300.457031 505.519531 300.46875 505.53125 300.484375 505.5625 L 300.5 505.5625 C 301.640625 506.746094 326.007812 532.378906 336.410156 566.171875 C 345.542969 581.902344 361.175781 605.375 380.257812 619.921875 C 380.988281 620.492188 381.734375 621.035156 382.492188 621.558594 C 382.214844 621.179688 380.679688 619.070312 378.664062 615.492188 C 372.175781 603.96875 360.679688 577.109375 369.707031 543.066406 C 371.082031 537.847656 372.953125 532.433594 375.40625 526.894531 C 375.40625 526.894531 402.039062 581.347656 437.324219 611.394531 C 417.03125 578.789062 413.128906 535.171875 412.910156 532.480469 C 415.421875 554.5625 429.566406 576.902344 444.046875 594.550781 C 444.277344 594.84375 444.527344 595.136719 444.761719 595.414062 C 446.703125 597.769531 448.660156 600.035156 450.589844 602.214844 C 465.085938 618.515625 478.164062 629.25 478.164062 629.25 L 476.015625 631.238281 C 513.136719 642.644531 466.269531 648.128906 462.574219 649.664062 Z M 401.078125 631.125 L 382.609375 621.664062 C 388.484375 625.859375 394.675781 629.164062 401.078125 631.125 Z M 542.445312 567.386719 C 542.445312 567.386719 540.007812 555.265625 538.546875 557.703125 C 538.167969 558.347656 536.222656 560.792969 533.578125 564.023438 C 527.980469 570.894531 519.246094 581.335938 515.503906 585.78125 C 499.460938 556.476562 469.960938 521.441406 453.027344 502.347656 C 452.941406 502.492188 452.839844 502.640625 452.75 502.769531 C 475.691406 535.703125 497.546875 597.976562 497.546875 597.976562 L 522.96875 601.558594 C 521.8125 598.546875 520.414062 595.390625 518.804688 592.128906 L 525.890625 597.976562 C 525.890625 597.976562 530.273438 590.84375 532.703125 588.75 C 535.140625 586.644531 538.546875 585.488281 542.445312 580.605469 C 546.347656 575.734375 542.445312 567.386719 542.445312 567.386719 Z M 542.445312 567.386719 " fill-opacity="1" fill-rule="nonzero"/><path fill="#ffffff" d="M 381.003906 508.285156 C 374.648438 519.25 371.214844 531.195312 369.710938 543.070312 C 367.445312 560.863281 369.476562 578.527344 372.398438 592.59375 C 372.574219 593.414062 372.75 594.230469 372.925781 595.023438 C 374.851562 603.664062 377.042969 610.769531 378.667969 615.492188 C 379.308594 617.363281 379.851562 618.855469 380.261719 619.921875 C 380.683594 621.019531 380.945312 621.664062 380.988281 621.796875 C 375.816406 619.660156 370.964844 617.1875 366.421875 614.441406 L 366.40625 614.425781 C 336.046875 596.164062 319.230469 566.042969 310.171875 542.121094 C 307 533.714844 304.789062 526.097656 303.265625 519.996094 L 300.339844 521.628906 L 289.203125 503.109375 C 293.140625 500.042969 298.257812 502.097656 302.699219 505.285156 L 313.066406 503.972656 L 316.382812 503.546875 L 347.152344 499.65625 L 360.796875 497.402344 C 360.796875 497.402344 368.28125 491.644531 375.613281 487.636719 C 376.535156 487.140625 377.453125 486.65625 378.359375 486.246094 C 388.425781 481.394531 396.3125 481.847656 381.003906 508.285156 Z M 627.15625 464.9375 C 627.316406 463.878906 627.476562 462.789062 627.621094 461.625 C 631.550781 430.5 612.875 384 598.328125 353.527344 C 596.050781 347.628906 593.460938 342.277344 590.523438 337.832031 C 590.378906 337.558594 590.238281 337.285156 590.101562 337.015625 C 617.863281 351.460938 652.996094 379.0625 652.996094 379.0625 C 647.640625 349.570312 622.214844 320.332031 622.214844 320.332031 L 547.050781 303.148438 L 547.800781 307.175781 C 547.800781 307.175781 547.273438 309.488281 547.105469 312.601562 C 536.957031 309.804688 527.976562 309.179688 516.144531 308.148438 C 500.683594 306.804688 488.703125 300.929688 479.078125 300.183594 C 470.726562 290.324219 443.441406 299.257812 420.203125 300.347656 C 389.035156 301.8125 368.09375 303.152344 368.09375 303.152344 L 344.152344 326.386719 C 342.855469 321.394531 341.875 316.429688 341.308594 311.5625 L 323.363281 322.027344 L 326.699219 289.628906 L 303.355469 302.285156 C 311.144531 261.839844 272.640625 286.703125 272.640625 286.703125 L 242.65625 323.21875 L 195.414062 334.617188 C 195.414062 334.617188 203 422.6875 262.414062 437.796875 C 262.414062 437.796875 246.8125 403.4375 244.863281 368.082031 C 259.21875 398.429688 286.054688 439.792969 326.699219 443.15625 C 326.699219 443.15625 306.714844 410.136719 299.089844 371.292969 C 320.011719 393.433594 355.679688 422.9375 396.339844 421.714844 C 396.339844 421.714844 382.34375 404.652344 368.394531 381.113281 C 370.542969 382.3125 372.765625 383.519531 375.050781 384.722656 C 390.34375 395.414062 425.960938 418.78125 463.8125 432.84375 C 451.339844 431.589844 442.539062 429.058594 441.320312 428.695312 L 418.257812 421.75 C 418.257812 421.75 419.257812 430.476562 426.980469 438.65625 C 414.800781 438.144531 368.566406 435.777344 355.917969 429.023438 L 345.691406 424.152344 C 345.691406 424.152344 360.679688 450.5625 400.425781 459.046875 C 440.171875 467.53125 448.449219 462.695312 450.398438 463.40625 L 435.359375 445.296875 C 436.699219 446.089844 438.128906 446.847656 439.683594 447.546875 C 445.15625 450.011719 450.511719 451.089844 455.386719 451.367188 L 460.625 459.730469 C 460.625 459.730469 468.414062 459.242188 479.617188 459.722656 C 487.539062 460.058594 496.1875 449.929688 500.917969 442.855469 C 505.410156 443.535156 509.84375 443.980469 514.195312 444.148438 C 543.640625 445.257812 554.078125 444.945312 557.117188 444.464844 C 560.671875 445.21875 570.4375 445.316406 579.171875 445.234375 L 584.808594 454.855469 C 584.808594 454.855469 589.191406 455.832031 595.039062 456.808594 C 598.296875 457.351562 606.105469 474.277344 613.464844 480.492188 L 604.898438 490.222656 L 579.449219 519.175781 L 574.640625 524.628906 L 554.640625 547.367188 L 553.894531 548.214844 C 554.8125 548.011719 555.75 547.703125 556.742188 547.292969 C 558.554688 546.550781 560.46875 545.484375 562.472656 544.136719 C 579.355469 532.867188 602.082031 502.300781 615.992188 482.179688 C 620.480469 484.289062 624.566406 480.992188 627.035156 465.6875 C 627.980469 464.222656 628.496094 463.40625 628.496094 463.40625 Z M 627.15625 464.9375 " fill-opacity="1" fill-rule="nonzero"/><g clip-path="url(#2daa10f39e)"><path fill="#000000" d="M 378.417969 434.578125 L 416.433594 417.933594 C 416.433594 417.933594 428.851562 433.652344 438.710938 439.5 C 438.710938 439.5 407.757812 440.214844 378.417969 434.578125 Z M 302.472656 451.53125 L 285.304688 455.585938 C 290.199219 458.847656 292.664062 461.101562 294.660156 462.1875 C 298.664062 471.96875 318.164062 506.789062 388.925781 491.53125 C 388.925781 491.53125 344.71875 469.476562 323.78125 455.585938 L 302.761719 458.484375 C 302.917969 453.808594 302.472656 451.53125 302.472656 451.53125 Z M 339.363281 158.023438 L 323.78125 153.769531 L 389.527344 14.242188 L 409.496094 114.523438 L 399.882812 112.210938 L 396.820312 100.714844 L 392.691406 93.320312 C 392.691406 93.320312 392.328125 95.148438 390.5 86.742188 C 388.675781 78.332031 385.023438 64.078125 385.023438 64.078125 L 382.832031 57.863281 L 379.894531 55.738281 L 379.507812 56.71875 C 379.507812 56.71875 377.933594 60.6875 379.507812 64.382812 C 380.867188 67.578125 377.75 70.4375 377.46875 74.582031 C 377.472656 74.976562 377.472656 75.390625 377.476562 75.832031 C 377.496094 76.09375 377.519531 76.359375 377.566406 76.632812 C 378.167969 80.128906 377.675781 83.449219 377.40625 86.183594 C 377.390625 87.199219 377.34375 88.132812 377.28125 89.011719 C 377.296875 89.324219 377.304688 89.632812 377.351562 89.914062 C 377.835938 92.957031 377.351562 96.617188 377.351562 100.027344 C 377.351562 103.441406 371.019531 114.527344 371.019531 114.527344 L 368.707031 123.253906 L 369.273438 110.246094 C 368.722656 111.308594 368.167969 112.367188 367.636719 113.386719 L 368.949219 125.496094 C 367.285156 126.925781 365.414062 128.039062 363.484375 128.917969 C 362.609375 129.308594 361.734375 129.660156 360.84375 129.953125 C 356.367188 131.496094 352 131.882812 349.6875 131.976562 L 344.40625 145.308594 C 344.742188 145.15625 345.082031 145.007812 345.414062 144.839844 C 351.300781 141.855469 356.460938 136.941406 359.746094 133.359375 C 362.097656 130.800781 363.488281 128.917969 363.488281 128.917969 L 361.6875 145.964844 C 362.433594 145.425781 363.0625 144.929688 363.488281 144.503906 C 367.492188 140.484375 362.039062 154.375 363.488281 155.472656 C 364.933594 156.566406 364.933594 156.566406 364.933594 156.566406 L 363.488281 160.585938 L 339.363281 158.023438 C 339.363281 158.023438 341.351562 157.089844 344.199219 155.671875 C 347.75 153.917969 352.644531 151.414062 356.691406 149.089844 C 357.992188 148.332031 359.21875 147.597656 360.269531 146.914062 C 359.058594 147.410156 357.875 147.773438 356.734375 148.023438 C 351.839844 149.148438 347.605469 148.375 344.929688 147.527344 C 344.46875 147.382812 344.054688 147.242188 343.691406 147.105469 Z M 350.457031 130.03125 C 357.023438 124.453125 362.078125 117.148438 364.804688 112.691406 L 367.5625 86.867188 Z M 397.804688 223.648438 C 409.523438 224.890625 417.894531 220.929688 423.210938 216.90625 C 412.417969 234.308594 397.804688 251.605469 397.804688 251.605469 C 408.371094 251.003906 418.070312 242.570312 424.6875 235.023438 C 418.929688 252.761719 411.320312 268.785156 411.320312 268.785156 C 423.898438 262.5 433.058594 248.199219 439.355469 234.191406 C 440.304688 232.101562 441.183594 229.996094 442.015625 227.933594 C 442.71875 226.148438 443.375 224.378906 444.003906 222.667969 C 444.25 221.980469 444.484375 221.292969 444.71875 220.636719 C 448.722656 209.085938 450.578125 199.988281 450.707031 199.316406 C 450.722656 199.289062 450.722656 199.273438 450.722656 199.273438 L 433.597656 204.726562 L 433.597656 197.375 L 439.078125 177.035156 C 438.1875 179.988281 436.78125 183 435.03125 185.980469 L 437.863281 173.289062 L 450.898438 165.335938 C 450.898438 165.335938 455.511719 151.445312 461.359375 140.480469 C 467.203125 129.511719 463.550781 130.242188 469.757812 115.257812 C 471.078125 112.070312 471.847656 109.375 472.277344 107.0625 L 472.292969 107.058594 L 477.066406 79.390625 L 478.71875 74.972656 L 480.714844 74.679688 C 480.714844 74.679688 483.273438 72.121094 484.003906 73.21875 C 484.738281 74.316406 485.464844 78.335938 486.195312 81.261719 C 486.929688 84.1875 486.925781 87.109375 486.925781 87.109375 C 486.925781 87.109375 489.847656 103.195312 490.023438 104.289062 C 490.046875 104.421875 490.121094 104.667969 490.226562 104.992188 C 490.269531 108.691406 490.214844 111.601562 490.214844 111.601562 L 491.796875 114.738281 L 491.796875 140.96875 L 496.789062 143.769531 L 500.5625 143.769531 C 502.023438 99.296875 496.789062 18.753906 496.789062 18.753906 L 442.367188 95.574219 L 446.539062 93.980469 C 445.855469 94.851562 445.421875 95.40625 445.316406 95.542969 L 448.632812 93.160156 C 448.714844 93.101562 448.921875 92.953125 449.234375 92.726562 L 449.746094 92.359375 C 450.265625 91.988281 450.890625 91.535156 451.550781 91.0625 L 452.089844 90.675781 C 452.207031 90.59375 452.316406 90.511719 452.429688 90.433594 L 468.289062 79.035156 L 464.949219 101.671875 C 440.039062 131.472656 429.085938 178.617188 429.085938 178.65625 C 419.691406 191.992188 411.320312 199.273438 411.320312 199.273438 C 417.105469 199.242188 424.484375 196.496094 429.128906 194.476562 C 416.59375 210.269531 397.804688 223.648438 397.804688 223.648438 Z M 360.136719 232.597656 C 360.210938 232.609375 360.285156 232.625 360.359375 232.640625 C 360.035156 229.058594 359.117188 222.859375 356.589844 216.015625 C 354.25 209.667969 350.527344 202.765625 344.609375 196.875 C 344.375 196.171875 344.15625 195.558594 343.9375 195.0625 C 343.9375 195.046875 343.921875 195.03125 343.921875 195.019531 C 343.453125 194.621094 342.988281 194.226562 342.488281 193.878906 C 342.476562 193.863281 342.476562 193.863281 342.460938 193.863281 C 341.976562 193.496094 341.484375 193.175781 340.972656 192.898438 C 340.824219 193.015625 340.695312 193.148438 340.578125 193.308594 C 338.414062 191.625 336.046875 190.0625 333.417969 188.6875 C 333.390625 188.671875 333.375 188.65625 333.34375 188.644531 L 333.34375 188.65625 L 331.691406 202.988281 C 331.691406 202.988281 332.6875 203.46875 334.292969 204.390625 L 331.691406 208.835938 C 331.691406 208.835938 332.203125 209.582031 332.996094 210.8125 C 335.710938 215.019531 341.746094 224.964844 341.921875 230.40625 C 341.921875 230.40625 347.371094 228.855469 347.515625 216.484375 L 347.515625 216.136719 C 347.515625 215.390625 347.5 214.597656 347.457031 213.765625 C 352.964844 218.675781 358.242188 225.082031 360.136719 232.597656 Z M 656.40625 333.488281 C 656.40625 333.488281 657.136719 324.714844 652.996094 316.675781 C 648.859375 308.632812 648.160156 288.476562 648.160156 288.476562 C 625.164062 268.167969 578.023438 280.398438 578.023438 280.398438 L 648.160156 339.339844 L 656.457031 339.339844 C 655.046875 332.757812 656.40625 333.488281 656.40625 333.488281 Z M 673.453125 432.921875 C 669.554688 411.964844 662.253906 416.839844 662.253906 416.839844 L 664.6875 451.445312 C 664.6875 451.445312 677.347656 453.882812 673.453125 432.921875 Z M 302.835938 239.191406 C 302.835938 239.191406 292.464844 228.269531 289.90625 211.015625 L 326.695312 246.855469 L 303.671875 215.691406 L 347.984375 246.855469 L 358.464844 253.066406 L 331.691406 218.460938 L 321.367188 214.910156 C 315.179688 209.585938 305.316406 202.449219 294.554688 199.886719 C 294.480469 199.636719 294.40625 199.375 294.347656 199.113281 C 293.382812 195.371094 293.808594 191.128906 296.65625 186.421875 L 292.40625 185.148438 C 299.214844 159.429688 291.441406 163.875 291.441406 163.875 L 279.679688 182.691406 C 279.679688 182.691406 273.617188 226.265625 302.835938 239.191406 Z M 647.960938 443.285156 C 647.960938 442 647.886719 440.847656 647.726562 439.878906 C 647.566406 434.878906 647.976562 429.03125 647.976562 429.03125 L 644.71875 427.070312 L 632.367188 430.742188 C 612.523438 409.449219 569.875 370.25 572.152344 372.679688 C 575.058594 375.785156 628.191406 458.898438 628.710938 459.710938 C 628.453125 460.167969 628.203125 460.617188 627.929688 461.082031 C 602.949219 439.554688 531.730469 393.441406 531.730469 393.441406 L 606.421875 490.96875 L 606.507812 491.003906 C 606.503906 491.007812 606.503906 491.011719 606.5 491.015625 C 606.46875 490.996094 606.453125 490.984375 606.421875 490.96875 C 605.929688 490.738281 605.417969 490.488281 604.90625 490.222656 C 586.074219 481.027344 554.398438 465.921875 544.1875 463.40625 L 572.375 523.167969 C 548.753906 507.957031 510.324219 482.179688 502.019531 470.515625 C 502.019531 470.515625 524.566406 516.585938 548.324219 546.132812 L 460.929688 506.480469 C 455.8125 503.984375 452.753906 502.769531 452.753906 502.769531 L 522.972656 601.558594 L 525.894531 597.976562 L 535.871094 600.347656 C 535.871094 600.347656 581.164062 625.203125 544.175781 574.75 C 543.96875 574.464844 543.753906 574.191406 543.542969 573.910156 L 550.730469 565.019531 L 553.902344 567.386719 C 553.902344 567.386719 558.039062 576.714844 563.882812 580.121094 C 569.726562 583.53125 563.882812 580.121094 576.054688 573.296875 C 577.394531 572.550781 578.476562 571.921875 579.367188 571.378906 C 585.066406 572.34375 586.277344 567.648438 586.074219 562.722656 C 591.097656 556.785156 590.28125 557.546875 596.023438 549.796875 C 601.867188 541.882812 604.792969 542.105469 612.578125 532.351562 C 620.367188 522.597656 617.941406 527 628.503906 508.285156 C 639.066406 489.582031 631.574219 501.648438 642.28125 470.515625 C 645.335938 461.65625 647.117188 453.730469 647.730469 447.71875 C 648.257812 446.679688 648.257812 445.597656 647.980469 443.394531 C 647.976562 443.359375 647.976562 443.316406 647.960938 443.285156 Z M 412.910156 532.480469 C 412.910156 532.480469 397.667969 582.320312 426.601562 616.425781 C 426.601562 616.425781 435.0625 622.042969 438.714844 621.792969 C 442.367188 621.546875 447.300781 621.800781 447.300781 621.800781 C 447.300781 621.800781 411.21875 555.277344 412.910156 532.480469 Z M 294.050781 490.675781 L 289.15625 494.335938 C 283.601562 485.496094 279.160156 480.441406 279.160156 480.441406 L 274.601562 488.628906 C 261.148438 468.105469 247.320312 455.585938 247.320312 455.585938 L 229.929688 466.734375 C 220.773438 461.835938 214.445312 459.722656 214.445312 459.722656 L 208.601562 473.132812 L 205.0625 488.175781 L 205.0625 497.09375 C 205.0625 497.09375 208.96875 511.515625 214.445312 525.039062 C 219.925781 538.566406 234.898438 547.703125 237.089844 549.164062 C 237.535156 549.460938 240.210938 551.609375 244.195312 554.847656 C 255.75 579.683594 274.800781 614.507812 287.769531 606.683594 C 292.875 614.765625 298.605469 615.84375 304.296875 600.800781 C 318.175781 610.761719 327.675781 615.214844 341.351562 621.792969 C 355.027344 628.375 401.078125 631.125 401.078125 631.125 C 401.078125 631.125 460.632812 636.167969 397.804688 629.445312 C 334.980469 622.726562 294.050781 490.675781 294.050781 490.675781 Z M 181.675781 113.691406 C 181.675781 113.675781 181.660156 113.675781 181.660156 113.675781 C 177.4375 110.605469 174.296875 107.988281 171.988281 105.75 C 171.988281 105.75 168.6875 106.070312 163.910156 106.949219 C 156.371094 108.339844 145.191406 111.144531 137.640625 116.308594 C 137.597656 116.351562 137.554688 116.363281 137.523438 116.394531 C 136.003906 117.433594 134.644531 118.570312 133.492188 119.816406 C 131.753906 121.6875 130.496094 123.792969 129.882812 126.148438 C 125.574219 142.917969 152.804688 154.527344 142.113281 182.601562 L 140.273438 178.234375 C 140.3125 178.328125 142.089844 182.625 140.269531 184.828125 C 138.429688 187.058594 136.769531 195.597656 136.769531 195.597656 L 97.550781 169.414062 L 95.167969 168.199219 C 94.804688 169.265625 94.496094 170.378906 94.25 171.503906 C 93.574219 174.585938 93.367188 177.878906 93.503906 181.304688 L 98.773438 170.230469 C 98.773438 170.230469 91.21875 202.929688 121.59375 239.496094 C 130.425781 246.601562 139.46875 255.4375 146.390625 265.816406 C 147.695312 267.59375 148.53125 268.785156 148.53125 268.785156 L 148.453125 269.054688 C 149.730469 271.167969 150.914062 273.339844 151.988281 275.570312 L 147.121094 273.546875 L 142.707031 288.476562 L 110.558594 249.230469 C 92.507812 233.929688 79.304688 232.597656 79.304688 232.597656 C 64.621094 207.039062 83.777344 164.734375 88.84375 154.472656 C 89.53125 152.972656 90.015625 152.175781 90.015625 152.175781 L 132.703125 172.238281 L 113.621094 129.144531 L 115.21875 125.441406 L 115.195312 125.386719 C 115.195312 125.386719 115.296875 125.167969 115.5 124.78125 L 115.824219 124.027344 L 115.863281 124.128906 C 118.351562 119.808594 128.410156 105.371094 155.597656 96.902344 C 155.597656 96.902344 158.199219 73.457031 174.265625 65.296875 L 202.566406 114.523438 C 214.546875 125.957031 233.667969 145.136719 249.511719 165.304688 C 253.484375 170.367188 257.269531 175.496094 260.660156 180.585938 C 266.210938 188.878906 270.769531 197.050781 273.617188 204.640625 C 273.617188 204.640625 207.433594 132.433594 181.675781 113.691406 Z M 112.058594 168.917969 L 112.050781 167.238281 L 107.332031 164.011719 L 105.730469 164.207031 C 108.054688 165.304688 110.1875 166.652344 111.445312 168.199219 C 111.660156 168.464844 111.867188 168.699219 112.058594 168.917969 Z M 120.242188 174.09375 L 122.878906 174.640625 L 114.65625 169.019531 L 112.144531 169.019531 C 115.472656 172.734375 116.527344 170.890625 119.726562 173.625 C 119.898438 173.777344 120.070312 173.933594 120.242188 174.09375 Z M 138.050781 177.769531 L 140.269531 178.226562 L 138.882812 174.933594 Z M 171.945312 105.707031 C 170.382812 104.195312 169.222656 102.867188 168.367188 101.695312 L 167.070312 101.207031 Z M 368.398438 381.109375 L 416.925781 415.792969 L 416.433594 417.933594 L 424.207031 420.636719 L 463.8125 432.84375 L 447.796875 415.21875 C 463.046875 409.53125 474.507812 400.019531 474.507812 400.019531 C 438.710938 402.214844 368.398438 381.109375 368.398438 381.109375 Z M 507.855469 214.007812 L 475.824219 257.851562 C 475.824219 257.851562 475.824219 257.863281 475.804688 257.894531 C 475.804688 257.9375 475.792969 257.980469 475.777344 258.054688 C 475.339844 260 471.820312 275.851562 469.757812 283.042969 C 469.757812 283.042969 474.984375 279.140625 481.679688 272.160156 C 493.625 260.089844 510.304688 239.503906 510.941406 218.214844 C 511.097656 218.449219 511.253906 218.679688 511.414062 218.925781 C 516.132812 226.105469 522.824219 238.695312 522.355469 251.605469 C 522.355469 251.605469 528.59375 241.28125 526.796875 221.105469 C 526.519531 217.871094 526.035156 214.390625 525.277344 210.664062 C 519.800781 183.613281 515.417969 182.152344 515.417969 182.152344 L 507.015625 212.859375 C 507.015625 212.859375 507.347656 213.25 507.886719 213.945312 Z M 507.855469 214.007812 " fill-opacity="1" fill-rule="nonzero"/></g><path fill="#ffffff" d="M 188.878906 275.570312 C 191.433594 280.527344 177.582031 304.960938 173.28125 298.949219 C 168.984375 292.941406 133.433594 252.25 133.433594 252.25 C 115.574219 232.589844 90.5 218.21875 90.5 218.21875 C 80.835938 194.953125 98.769531 170.230469 98.769531 170.230469 L 138.949219 196.300781 C 143.757812 183.433594 142.582031 171.75 140.652344 164.015625 C 139.617188 161.046875 138.457031 157.789062 137.238281 154.460938 C 137.238281 154.460938 137.234375 154.453125 137.234375 154.453125 L 137.238281 154.453125 C 133.59375 144.511719 129.414062 134.011719 126.417969 129.144531 C 126.417969 129.144531 153.007812 105.375 164.125 107.027344 C 175.242188 108.675781 171.347656 127.683594 171.347656 127.683594 C 171.347656 127.683594 171.941406 139.917969 172.007812 142.027344 L 154.472656 164.882812 L 163.308594 170.230469 C 163.308594 170.230469 163.675781 172.644531 163.308594 179.816406 C 162.945312 186.992188 161.847656 186.539062 158.5625 189.460938 C 155.273438 192.386719 158.5625 190.882812 158.5625 190.882812 C 158.5625 190.882812 148.769531 200.695312 142.488281 204.0625 L 142.488281 211.539062 L 170.980469 240.972656 C 170.980469 240.972656 173.171875 245.390625 178.890625 253.066406 C 184.609375 260.742188 186.320312 270.613281 188.878906 275.570312 Z M 382.929688 83.457031 L 395.464844 166.84375 C 397.023438 81.589844 385.136719 48.847656 385.136719 48.847656 Z M 486.441406 57.621094 L 479.832031 82.792969 L 488.550781 134.804688 Z M 486.441406 57.621094 " fill-opacity="1" fill-rule="nonzero"/></svg>